<svg width="62" height="62" viewBox="0 0 62 62" fill="none" xmlns="http://www.w3.org/2000/svg">
<path d="M1 23.665C1 22.6091 1.34395 21.582 1.97979 20.739C2.61562 19.896 3.50875 19.2831 4.524 18.993L4.918 18.881C5.80497 18.6273 6.58534 18.092 7.14131 17.3558C7.69728 16.6196 7.99867 15.7225 8 14.8C7.99981 14.2776 8.16384 13.7684 8.46892 13.3443C8.77399 12.9203 9.20465 12.6029 9.7 12.437C10.0781 12.3112 10.407 12.0697 10.6403 11.7467C10.8736 11.4236 10.9994 11.0355 11 10.637C11.0001 10.2267 11.1331 9.82746 11.379 9.499L13 7.333C13.3106 6.91907 13.7133 6.58312 14.1762 6.35176C14.6391 6.12039 15.1495 5.99996 15.667 6C16.551 6 17.3987 6.35115 18.0238 6.97621C18.6488 7.60127 19 8.44903 19 9.333V11.924C18.9999 12.1967 19.0535 12.4667 19.1578 12.7186C19.262 12.9705 19.415 13.1994 19.6078 13.3922C19.8006 13.585 20.0295 13.738 20.2814 13.8422C20.5333 13.9465 20.8033 14.0001 21.076 14C21.6362 13.9999 22.1822 14.1761 22.6367 14.5036C23.0912 14.8312 23.431 15.2935 23.608 15.825C23.7309 16.1932 23.9324 16.5301 24.1987 16.8125C24.465 17.0949 24.7896 17.3158 25.15 17.46L27.556 18.422C28.5101 18.804 29.5283 19.0002 30.556 19C32.1501 19 33.7085 18.5281 35.035 17.644L44.421 11.387C44.5995 11.2675 44.7458 11.1057 44.8468 10.9161C44.9478 10.7265 45.0004 10.5148 45 10.3C45 9.95522 44.863 9.62456 44.6192 9.38076C44.3754 9.13696 44.0448 9 43.7 9H42.5C42.1022 9 41.7206 8.84196 41.4393 8.56066C41.158 8.27936 41 7.89782 41 7.5C41 7.10218 41.158 6.72064 41.4393 6.43934C41.7206 6.15804 42.1022 6 42.5 6C43.487 6.00016 44.4435 5.65826 45.2067 5.03251C45.9699 4.40676 46.4927 3.53584 46.686 2.568C46.7746 2.12566 47.0137 1.72767 47.3626 1.44178C47.7116 1.1559 48.1489 0.999778 48.6 1C50.0991 1.00009 51.5478 1.54087 52.6803 2.52308C53.8127 3.50529 54.5529 4.863 54.765 6.347C54.8305 6.80565 55.0591 7.22531 55.4091 7.52895C55.759 7.83258 56.2067 7.99983 56.67 8C56.8447 7.99987 57.0177 8.03418 57.1791 8.10097C57.3405 8.16776 57.4872 8.26573 57.6107 8.38925C57.7343 8.51278 57.8322 8.65945 57.899 8.82088C57.9658 8.9823 58.0001 9.1553 58 9.33C58 9.41799 58.0173 9.50511 58.051 9.5864C58.0847 9.66769 58.134 9.74155 58.1962 9.80376C58.2585 9.86598 58.3323 9.91533 58.4136 9.949C58.4949 9.98267 58.582 10 58.67 10C59.288 10 59.8806 10.2455 60.3176 10.6824C60.7545 11.1194 61 11.712 61 12.33C60.9999 13.3993 60.5751 14.4248 59.819 15.181L53 22C52.3597 22.6402 51.4914 22.9999 50.586 23C50.1654 23 49.762 22.8329 49.4645 22.5355C49.1671 22.238 49 21.8346 49 21.414C49 21.2283 48.9634 21.0444 48.8924 20.8729C48.8213 20.7013 48.7172 20.5455 48.5858 20.4142C48.4545 20.2828 48.2987 20.1787 48.1271 20.1076C47.9556 20.0366 47.7717 20 47.586 20C47.211 20 46.8513 20.1489 46.586 20.414L44.707 22.293C44.4828 22.5172 44.305 22.7833 44.1837 23.0762C44.0624 23.3691 44 23.683 44 24C44 24.2652 44.1054 24.5196 44.2929 24.7071C44.4804 24.8946 44.7348 25 45 25C45.2652 25 45.5196 25.1054 45.7071 25.2929C45.8946 25.4804 46 25.7348 46 26C46.0002 27.9628 46.5336 29.8887 47.543 31.572C48.4965 33.1605 49.0001 34.9783 49 36.831C49 39.3069 48.3379 41.7377 47.0823 43.8715C45.8267 46.0054 44.0233 47.7646 41.859 48.967C40.6398 49.6448 39.2679 50.0003 37.873 50C37.5961 50 37.3218 49.9454 37.066 49.8394C36.8102 49.7333 36.5777 49.5779 36.382 49.382L33.516 46.516C33.1854 46.1858 32.7373 46.0002 32.27 46C31.9007 45.9997 31.5407 46.1154 31.2407 46.3307C30.9407 46.546 30.7159 46.8501 30.598 47.2C30.4248 47.7237 30.091 48.1794 29.644 48.5025C29.197 48.8257 28.6596 48.9997 28.108 49C27.7568 49.0001 27.4091 48.9309 27.0846 48.7966C26.7602 48.6622 26.4653 48.4653 26.217 48.217C25.5141 47.5142 24.9565 46.6798 24.5761 45.7615C24.1957 44.8432 24 43.859 24 42.865V40.882C24 40.3722 23.8996 39.8674 23.7045 39.3964C23.5094 38.9254 23.2235 38.4975 22.863 38.137C22.5025 37.7765 22.0746 37.4906 21.6036 37.2955C21.1326 37.1004 20.6278 37 20.118 37C19.3828 37 18.6576 37.1712 18 37.5C17.3424 37.8288 16.6172 38 15.882 38H15.4C12.5497 38.0001 9.78437 37.0299 7.559 35.249C7.07217 34.859 6.67929 34.3645 6.40943 33.8021C6.13957 33.2397 5.99964 32.6238 6 32C6 31.376 5.85961 30.7599 5.58922 30.1975C5.31883 29.6351 4.92538 29.1407 4.438 28.751L2.823 27.459C2.25417 27.0037 1.795 26.4263 1.47944 25.7696C1.16389 25.1129 1.00004 24.3936 1 23.665Z" fill="#006837"/>
<path d="M58.67 10C58.582 10 58.4949 9.98267 58.4136 9.949C58.3323 9.91533 58.2585 9.86598 58.1962 9.80376C58.134 9.74155 58.0847 9.66769 58.051 9.5864C58.0173 9.50511 58 9.41799 58 9.33C58.0001 9.1553 57.9658 8.9823 57.899 8.82088C57.8322 8.65945 57.7343 8.51278 57.6107 8.38925C57.4872 8.26573 57.3405 8.16776 57.1791 8.10097C57.0177 8.03418 56.8447 7.99987 56.67 8C56.2065 8.00008 55.7586 7.83293 55.4085 7.52927C55.0583 7.22561 54.8295 6.80582 54.764 6.347C54.552 4.86317 53.8119 3.50559 52.6797 2.52341C51.5474 1.54122 50.0989 1.00033 48.6 1C48.149 1.00001 47.712 1.15623 47.3633 1.4421C47.0145 1.72797 46.7755 2.12582 46.687 2.568C46.4914 3.53488 45.9678 4.40453 45.2049 5.02989C44.442 5.65525 43.4865 5.99793 42.5 6C42.1022 6 41.7206 6.15804 41.4393 6.43934C41.158 6.72064 41 7.10218 41 7.5C41 7.89782 41.158 8.27936 41.4393 8.56066C41.7206 8.84196 42.1022 9 42.5 9H43.7C43.779 9.00803 43.8571 9.02377 43.933 9.047C44.2294 9.098 44.4984 9.25132 44.6934 9.48027C44.8884 9.70922 44.9969 9.9993 45 10.3C44.9998 10.5144 44.9468 10.7255 44.8456 10.9146C44.7445 11.1036 44.5983 11.2649 44.42 11.384L35.034 17.641C33.9442 18.3676 32.6939 18.8181 31.3911 18.9537C30.0883 19.0892 28.7721 18.9057 27.556 18.419L25.15 17.46C24.7896 17.3158 24.465 17.0949 24.1987 16.8125C23.9324 16.5301 23.7309 16.1932 23.608 15.825C23.431 15.2935 23.0912 14.8312 22.6367 14.5036C22.1822 14.1761 21.6362 13.9999 21.076 14C20.8033 14.0001 20.5333 13.9465 20.2814 13.8422C20.0295 13.738 19.8006 13.585 19.6078 13.3922C19.415 13.1994 19.262 12.9705 19.1578 12.7186C19.0535 12.4667 18.9999 12.1967 19 11.924V9.333C18.9996 8.63359 18.7792 7.95203 18.3701 7.38476C17.961 6.8175 17.3838 6.39326 16.7203 6.17209C16.0568 5.95092 15.3405 5.94401 14.6729 6.15235C14.0052 6.36069 13.42 6.77373 13 7.333L11.379 9.494C11.1331 9.82246 11.0001 10.2217 11 10.632C10.9994 11.0305 10.8736 11.4186 10.6403 11.7417C10.407 12.0647 10.0781 12.3062 9.7 12.432C9.68 12.439 9.663 12.449 9.644 12.456C9.23223 12.6045 8.86702 12.8592 8.58535 13.1942C8.30367 13.5293 8.11554 13.9328 8.04 14.364C8.01373 14.5079 8.00034 14.6538 8 14.8C7.99976 15.7234 7.69886 16.6216 7.14281 17.3588C6.58676 18.096 5.80579 18.6321 4.918 18.886L4.524 18.998C3.97632 19.1548 3.46047 19.4066 3 19.742C3.01103 20.4572 3.17978 21.1612 3.49421 21.8037C3.80864 22.4462 4.26099 23.0114 4.819 23.459L6.434 24.751C6.92211 25.1403 7.31633 25.6345 7.58742 26.197C7.85851 26.7594 7.99952 27.3756 8 28C8 28.624 8.14039 29.2401 8.41078 29.8025C8.68117 30.3649 9.07462 30.8593 9.562 31.249C11.7866 33.0293 14.5508 33.9995 17.4 34H17.879C18.6153 34.0005 19.3415 33.8293 20 33.5C20.6576 33.1712 21.3828 33 22.118 33C23.1476 33 24.135 33.409 24.863 34.137C25.591 34.865 26 35.8524 26 36.882V38.865C26 39.859 26.1957 40.8432 26.5761 41.7615C26.9565 42.6798 27.5141 43.5142 28.217 44.217C28.4653 44.4653 28.7602 44.6622 29.0846 44.7966C29.4091 44.9309 29.7568 45.0001 30.108 45C30.6596 44.9997 31.197 44.8257 31.644 44.5025C32.091 44.1794 32.4248 43.7237 32.598 43.2C32.6929 42.915 32.8591 42.6589 33.0809 42.4562C33.3026 42.2535 33.5725 42.1108 33.8649 42.0418C34.1573 41.9727 34.4624 41.9796 34.7514 42.0617C35.0404 42.1439 35.3036 42.2985 35.516 42.511L38.382 45.377C38.5773 45.5738 38.8096 45.7301 39.0654 45.837C39.3213 45.9439 39.5957 45.9993 39.873 46C41.2679 46.0003 42.6398 45.6448 43.859 44.967C45.6374 43.9768 47.1761 42.6074 48.366 40.956C48.7841 39.6208 48.9979 38.2301 49 36.831C49 34.9785 48.4968 33.1607 47.544 31.572C46.5342 29.8888 46.0005 27.9629 46 26C46 25.7348 45.8946 25.4804 45.7071 25.2929C45.5196 25.1054 45.2652 25 45 25C44.7348 25 44.4804 24.8946 44.2929 24.7071C44.1054 24.5196 44 24.2652 44 24C44 23.683 44.0624 23.3691 44.1837 23.0762C44.305 22.7833 44.4828 22.5172 44.707 22.293L46.293 20.707C46.1054 20.5195 46.0001 20.2652 46 20C46 19.683 46.0624 19.3691 46.1837 19.0762C46.305 18.7833 46.4828 18.5172 46.707 18.293L48.586 16.414C48.7838 16.2162 49.0357 16.0815 49.3101 16.0269C49.5844 15.9723 49.8687 16.0003 50.1272 16.1073C50.3856 16.2144 50.6064 16.3957 50.7618 16.6283C50.9172 16.8609 51.0001 17.1343 51 17.414C51 17.8346 51.1671 18.238 51.4645 18.5355C51.762 18.8329 52.1654 19 52.586 19C53.4914 18.9999 54.3597 18.6402 55 18L60.97 12.03C60.8986 11.47 60.6258 10.9552 60.2025 10.5816C59.7793 10.208 59.2345 10.0013 58.67 10Z" fill="#009245"/>
<path d="M44 61C53.3888 61 61 53.3888 61 44C61 34.6112 53.3888 27 44 27C34.6112 27 27 34.6112 27 44C27 53.3888 34.6112 61 44 61Z" fill="#C1272D"/>
<path d="M44 27C40.4697 26.9984 37.0274 28.102 34.156 30.156C31.8229 33.4273 30.7252 37.4199 31.058 41.4241C31.3909 45.4284 33.1327 49.185 35.9739 52.0262C38.8151 54.8674 42.5716 56.6092 46.5759 56.942C50.5802 57.2749 54.5727 56.1772 57.844 53.844C59.6561 51.3032 60.733 48.3122 60.9565 45.1994C61.1801 42.0866 60.5415 38.9724 59.1111 36.1987C57.6807 33.4251 55.5136 31.0992 52.8479 29.4764C50.1822 27.8537 47.1208 26.9969 44 27Z" fill="#DD1F2D"/>
<path d="M37.0001 40L40.0001 42L39.0001 39L41.0001 37H38.0001L37.0001 34L36.0001 37H33.0001L35.0001 39L34.0001 42L37.0001 40ZM43.0001 44H45.0001V46H43.0001V44ZM45.0001 40H47.0001V42H45.0001V40ZM45.0001 36H47.0001V38H45.0001V36ZM43.0001 32H45.0001V34H43.0001V32Z" fill="#FFDC7B"/>
<path d="M47.2931 21.121C47.3534 21.0698 47.4266 21.0362 47.5048 21.0239C47.583 21.0116 47.663 21.0212 47.7361 21.0515C47.8092 21.0818 47.8725 21.1316 47.9191 21.1956C47.9656 21.2596 47.9937 21.3351 48.0001 21.414C48.0008 22.0996 48.2736 22.7569 48.7584 23.2417C49.2431 23.7265 49.9004 23.9992 50.5861 24C51.1659 24.0016 51.7404 23.8881 52.2761 23.6662C52.8118 23.4442 53.2982 23.1182 53.7071 22.707L60.5261 15.888C60.9948 15.4218 61.3664 14.8673 61.6194 14.2566C61.8724 13.6459 62.0018 12.9911 62.0001 12.33C61.9992 11.5006 61.6892 10.7014 61.1306 10.0884C60.5719 9.47534 59.8048 9.09264 58.9791 9.015C58.9021 8.45706 58.6259 7.94578 58.2016 7.57546C57.7772 7.20513 57.2333 7.00075 56.6701 7C56.4474 6.99921 56.2325 6.91852 56.0644 6.77261C55.8963 6.6267 55.7862 6.42528 55.7541 6.205C55.5008 4.48608 54.6397 2.91489 53.3272 1.77645C52.0146 0.638013 50.3375 0.00775015 48.6001 0C47.9184 0.00146919 47.2581 0.238347 46.7309 0.670566C46.2038 1.10279 45.8421 1.70382 45.7071 2.372C45.5572 3.11253 45.1562 3.77857 44.5718 4.25745C43.9874 4.73633 43.2556 4.99864 42.5001 5C41.837 5 41.2011 5.26339 40.7323 5.73223C40.2634 6.20107 40.0001 6.83696 40.0001 7.5C40.0001 8.16304 40.2634 8.79893 40.7323 9.26777C41.2011 9.73661 41.837 10 42.5001 10H43.7001C43.7662 9.99774 43.8312 10.0174 43.8849 10.0559C43.9387 10.0944 43.9783 10.1496 43.9974 10.2129C44.0166 10.2762 44.0143 10.3441 43.9909 10.406C43.9675 10.4678 43.9243 10.5202 43.8681 10.555L34.4821 16.812C33.525 17.4435 32.4299 17.8352 31.2894 17.9539C30.1489 18.0726 28.9967 17.9149 27.9301 17.494L25.5241 16.532C25.2985 16.442 25.0954 16.3039 24.9289 16.1271C24.7624 15.9504 24.6365 15.7395 24.5601 15.509C24.3171 14.7775 23.8496 14.1412 23.224 13.6907C22.5985 13.2403 21.8469 12.9986 21.0761 13C20.7907 13 20.517 12.8866 20.3152 12.6848C20.1134 12.4831 20.0001 12.2094 20.0001 11.924V9.333C19.9996 8.42371 19.7132 7.53758 19.1814 6.80005C18.6495 6.06252 17.8992 5.51095 17.0366 5.22341C16.174 4.93586 15.2427 4.92692 14.3747 5.19784C13.5068 5.46876 12.746 6.00582 12.2001 6.733L10.5811 8.893C10.2047 9.39509 10.0008 10.0055 10.0001 10.633C9.99956 10.8212 9.94006 11.0046 9.82991 11.1572C9.71977 11.3099 9.56454 11.4242 9.38605 11.484C8.69006 11.7154 8.0848 12.1605 7.65642 12.7559C7.22803 13.3512 6.99835 14.0665 7.00005 14.8C6.9977 15.5052 6.76699 16.1908 6.34246 16.7539C5.91792 17.3171 5.3224 17.7276 4.64505 17.924L4.24505 18.036C3.21283 18.3329 2.28208 18.9079 1.55449 19.698C0.826891 20.4881 0.330442 21.4629 0.119381 22.5161C-0.0916809 23.5692 -0.0092364 24.6601 0.357707 25.6696C0.72465 26.679 1.36198 27.5682 2.20005 28.24L3.81605 29.532C4.18658 29.8276 4.48552 30.2031 4.69054 30.6305C4.89557 31.0578 5.00137 31.526 5.00005 32C4.99797 32.7742 5.17114 33.5388 5.5066 34.2366C5.84206 34.9343 6.33109 35.5471 6.93705 36.029C9.34069 37.9483 12.3242 38.9956 15.4001 39H15.8791C16.7689 39.0004 17.6467 38.795 18.4441 38.4C18.9626 38.1392 19.5346 38.0023 20.1151 38C20.8797 38 21.613 38.3035 22.154 38.8439C22.695 39.3843 22.9993 40.1174 23.0001 40.882V42.865C22.9971 43.9907 23.2174 45.1059 23.6482 46.1459C24.0791 47.1859 24.7119 48.1301 25.5101 48.924C25.9233 49.3364 26.4284 49.6449 26.9841 49.824C28.0105 52.8322 29.8156 55.5148 32.2157 57.5986C34.6158 59.6825 37.5251 61.0933 40.6476 61.6874C43.7701 62.2815 46.9943 62.0377 49.9919 60.9809C52.9896 59.924 55.6537 58.0918 57.7132 55.6707C59.7726 53.2497 61.1538 50.3262 61.7163 47.1978C62.2787 44.0695 62.0023 40.848 60.9151 37.8612C59.828 34.8744 57.9689 32.2289 55.5271 30.1941C53.0853 28.1593 50.1479 26.8077 47.0141 26.277C47.0141 26.186 47.0001 26.095 47.0001 26.004C47.0001 25.4736 46.7893 24.9649 46.4143 24.5898C46.0392 24.2147 45.5305 24.004 45.0001 24.004C44.9996 23.8182 45.0359 23.6342 45.107 23.4626C45.178 23.2909 45.2824 23.1351 45.4141 23.004L47.2931 21.121ZM60.0001 44C60.0001 47.1645 59.0617 50.2579 57.3036 52.8891C55.5455 55.5203 53.0466 57.5711 50.123 58.7821C47.1994 59.9931 43.9823 60.3099 40.8786 59.6926C37.7749 59.0752 34.924 57.5513 32.6863 55.3137C30.4487 53.0761 28.9249 50.2251 28.3075 47.1214C27.6901 44.0177 28.007 40.8007 29.218 37.8771C30.429 34.9534 32.4797 32.4546 35.1109 30.6965C37.7421 28.9384 40.8356 28 44.0001 28C48.242 28.005 52.3087 29.6924 55.3082 32.6918C58.3077 35.6913 59.995 39.7581 60.0001 44ZM45.0001 26V26.051C44.6661 26.032 44.3351 26 44.0001 26C41.4056 25.9814 38.8382 26.5278 36.4763 27.6014C34.1143 28.675 32.0145 30.2499 30.3225 32.2169C28.6306 34.1838 27.3872 36.4955 26.6788 38.9914C25.9703 41.4873 25.8138 44.1075 26.2201 46.67C25.4265 45.5618 24.9999 44.233 25.0001 42.87V40.882C24.9987 39.5876 24.484 38.3466 23.5687 37.4314C22.6534 36.5161 21.4124 36.0013 20.1181 36C19.2282 35.9996 18.3504 36.205 17.5531 36.6C17.0345 36.8608 16.4625 36.9977 15.8821 37H15.4001C12.7772 36.9969 10.233 36.1042 8.18305 34.468C7.81271 34.1723 7.51396 33.7967 7.30911 33.3694C7.10426 32.942 6.99861 32.4739 7.00005 32C7.00199 31.2257 6.82876 30.4609 6.49332 29.7631C6.15788 29.0652 5.66892 28.4522 5.06305 27.97L3.44805 26.678C2.89528 26.2354 2.47495 25.6493 2.23307 24.9838C1.99119 24.3182 1.93709 23.599 2.0767 22.9048C2.2163 22.2106 2.54423 21.5681 3.02458 21.0479C3.50493 20.5276 4.11917 20.1495 4.80005 19.955L5.20005 19.843C6.29285 19.5251 7.25346 18.8621 7.93836 17.9532C8.62327 17.0442 8.99571 15.9381 9.00005 14.8C8.99951 14.4871 9.09771 14.1819 9.28067 13.9281C9.46363 13.6742 9.72202 13.4845 10.0191 13.386C10.5964 13.1931 11.0984 12.8234 11.454 12.3293C11.8095 11.8352 12.0006 11.2417 12.0001 10.633C11.9995 10.4385 12.0627 10.2491 12.1801 10.094L13.8001 7.934C14.0938 7.54201 14.5034 7.25242 14.9709 7.10627C15.4385 6.96012 15.9401 6.96482 16.4048 7.11972C16.8695 7.27462 17.2737 7.57185 17.56 7.96928C17.8463 8.36671 18.0003 8.84417 18.0001 9.334V11.925C18.0014 12.7403 18.3259 13.5218 18.9025 14.0982C19.4791 14.6747 20.2607 14.9989 21.0761 15C21.4264 14.9995 21.768 15.1094 22.0522 15.3143C22.3364 15.5192 22.5488 15.8085 22.6591 16.141C22.8274 16.6473 23.1043 17.1108 23.4703 17.499C23.8363 17.8873 24.2826 18.191 24.7781 18.389L27.1851 19.352C28.5528 19.8906 30.03 20.0922 31.492 19.9397C32.954 19.7873 34.3579 19.2852 35.5851 18.476L44.9701 12.219C45.3828 11.9463 45.6966 11.5479 45.8649 11.0828C46.0332 10.6177 46.0472 10.1107 45.9046 9.63704C45.762 9.1634 45.4705 8.74833 45.0734 8.45344C44.6763 8.15855 44.1947 7.99954 43.7001 8H42.5001C42.3674 8 42.2403 7.94732 42.1465 7.85355C42.0527 7.75979 42.0001 7.63261 42.0001 7.5C42.0001 7.36739 42.0527 7.24021 42.1465 7.14645C42.2403 7.05268 42.3674 7 42.5001 7C43.7174 6.99746 44.8965 6.57461 45.838 5.80294C46.7795 5.03127 47.4256 3.95813 47.6671 2.765C47.7104 2.54942 47.827 2.35548 47.9971 2.21605C48.1671 2.07662 48.3802 2.00029 48.6001 2C49.8568 2.0053 51.07 2.46106 52.0193 3.28454C52.9687 4.10802 53.5912 5.24463 53.7741 6.488C53.8768 7.18374 54.2255 7.81963 54.7567 8.28046C55.288 8.74129 55.9668 8.99656 56.6701 9C56.7576 9 56.8415 9.03477 56.9034 9.09665C56.9653 9.15854 57.0001 9.24248 57.0001 9.33C57.0006 9.77275 57.1767 10.1972 57.4898 10.5103C57.8028 10.8234 58.2273 10.9995 58.6701 11C59.0226 11.0005 59.3606 11.1408 59.6099 11.3901C59.8592 11.6394 59.9995 11.9774 60.0001 12.33C60.0012 12.7283 59.9233 13.123 59.7709 13.491C59.6185 13.859 59.3945 14.1931 59.1121 14.474L52.2931 21.293C52.0693 21.5178 51.8033 21.696 51.5103 21.8173C51.2173 21.9387 50.9032 22.0008 50.5861 22C50.4307 21.9997 50.2818 21.9379 50.172 21.8281C50.0621 21.7182 50.0003 21.5693 50.0001 21.414C50.0001 20.9365 49.8585 20.4698 49.5933 20.0728C49.328 19.6758 48.951 19.3664 48.5099 19.1837C48.0688 19.001 47.5834 18.9531 47.1151 19.0463C46.6468 19.1395 46.2167 19.3694 45.8791 19.707L44.0001 21.586C43.6819 21.9022 43.4297 22.2784 43.258 22.6928C43.0864 23.1071 42.9987 23.5515 43.0001 24C43.0001 24.5304 43.2108 25.0391 43.5858 25.4142C43.9609 25.7893 44.4696 26 45.0001 26Z" fill="#1B1717"/>
<path d="M41 36H38.721L37.948 33.684C37.8823 33.4839 37.755 33.3097 37.5844 33.1862C37.4139 33.0627 37.2086 32.9963 36.998 32.9963C36.7874 32.9963 36.5822 33.0627 36.4116 33.1862C36.241 33.3097 36.1138 33.4839 36.048 33.684L35.279 36H33C32.8023 36 32.609 36.0587 32.4446 36.1686C32.2802 36.2785 32.152 36.4346 32.0764 36.6173C32.0007 36.8 31.9809 37.0011 32.0194 37.195C32.058 37.389 32.1532 37.5671 32.293 37.707L33.855 39.271L33.055 41.684C32.99 41.8812 32.988 42.0937 33.0493 42.2921C33.1106 42.4905 33.2321 42.6649 33.397 42.7911C33.5619 42.9173 33.762 42.989 33.9695 42.9964C34.177 43.0037 34.3817 42.9463 34.555 42.832L37 41.2L39.445 42.83C39.6184 42.9443 39.8231 43.0017 40.0306 42.9944C40.2381 42.987 40.4382 42.9153 40.603 42.7891C40.7679 42.6629 40.8894 42.4885 40.9507 42.2901C41.012 42.0918 41.01 41.8792 40.945 41.682L40.145 39.269L41.707 37.705C41.8462 37.565 41.9408 37.3871 41.9789 37.1934C42.0171 36.9998 41.9971 36.7992 41.9216 36.617C41.846 36.4347 41.7181 36.2788 41.5542 36.169C41.3902 36.0592 41.1974 36.0004 41 36ZM38.293 38.293C38.1619 38.4243 38.0699 38.5896 38.0273 38.7703C37.9847 38.951 37.9933 39.1399 38.052 39.316L38.13 39.551L37.555 39.168C37.3907 39.0584 37.1976 38.9999 37 38.9999C36.8025 38.9999 36.6094 39.0584 36.445 39.168L35.87 39.551L35.948 39.316C36.0068 39.1399 36.0153 38.951 35.9728 38.7703C35.9302 38.5896 35.8382 38.4243 35.707 38.293L35.414 38H36C36.2098 37.9998 36.4143 37.9337 36.5844 37.811C36.7545 37.6882 36.8817 37.515 36.948 37.316L37 37.162L37.052 37.316C37.1183 37.515 37.2455 37.6882 37.4157 37.811C37.5858 37.9337 37.7902 37.9998 38 38H38.586L38.293 38.293ZM43 44H45V46H43V44ZM45 40H47V42H45V40ZM45 36H47V38H45V36ZM43 32H45V34H43V32Z" fill="#1B1717"/>
</svg>
