<svg width="63" height="62" viewBox="0 0 63 62" fill="none" xmlns="http://www.w3.org/2000/svg">
<path d="M21.939 2.939L21.139 2.139C20.7797 1.77852 20.3528 1.49239 19.8828 1.29695C19.4129 1.10152 18.909 1.00061 18.4 1C17.6803 0.999863 16.9748 1.20019 16.3627 1.57853C15.7505 1.95687 15.2558 2.49826 14.934 3.142L12.5 8.009C12.3514 8.30631 12.1231 8.55645 11.8406 8.73145C11.558 8.90646 11.2324 8.99944 10.9 9C10.3474 9.00219 9.80813 8.82983 9.35921 8.50751C8.91028 8.18518 8.57459 7.72935 8.4 7.205C8.28304 6.85447 8.05889 6.54955 7.75923 6.33332C7.45956 6.11709 7.09953 6.0005 6.73 6C6.26272 6.00018 5.8146 6.18576 5.484 6.516L4.621 7.379C4.42403 7.57598 4.19018 7.73222 3.9328 7.83877C3.67542 7.94533 3.39956 8.00011 3.121 8C2.55856 8.00027 2.01923 8.22381 1.62152 8.62152C1.22381 9.01923 1.00026 9.55856 1 10.121V17.464C1 18.4018 1.37254 19.3012 2.03567 19.9643C2.6988 20.6275 3.59819 21 4.536 21C5.00033 21 5.4601 20.9085 5.88906 20.7307C6.31802 20.5529 6.70775 20.2924 7.036 19.964L9.226 17.774C9.47201 17.5279 9.7642 17.3329 10.0858 17.2001C10.4074 17.0672 10.7521 16.9993 11.1 17C11.6535 17.0014 12.1925 17.1765 12.6411 17.5008C13.0897 17.825 13.4251 18.2819 13.6 18.807L13.793 19.384C15.2429 23.7348 17.6861 27.6882 20.929 30.931C22.3037 32.3069 23.8111 33.5436 25.429 34.623L32.083 39.059C32.9798 39.6555 33.7153 40.4643 34.2242 41.4135C34.733 42.3627 34.9996 43.423 35 44.5C35.0001 45.5766 34.7344 46.6365 34.2264 47.5857C33.7184 48.5349 32.9838 49.3439 32.088 49.941L30.625 50.917C29.5653 51.623 28.3204 51.9998 27.047 52C26.3536 51.9999 25.6648 51.8881 25.007 51.669L23.949 51.316C23.3205 51.1069 22.6624 51.0002 22 51C21.4696 51 20.9609 51.2107 20.5858 51.5858C20.2107 51.9609 20 52.4696 20 53C20 53.5304 20.2107 54.0391 20.5858 54.4142C20.9609 54.7893 21.4696 55 22 55C23.2982 55 24.5614 55.4211 25.6 56.2L27.6 57.7C27.7242 57.7931 27.825 57.9139 27.8944 58.0528C27.9639 58.1916 28 58.3448 28 58.5C28 59.163 28.2634 59.7989 28.7322 60.2678C29.2011 60.7366 29.837 61 30.5 61C31.163 61 31.7989 60.7366 32.2678 60.2678C32.7366 59.7989 33 59.163 33 58.5V55.981C33 55.4556 33.2087 54.9517 33.5802 54.5802C33.9517 54.2087 34.4556 54 34.981 54C35.2961 54 35.6067 53.9248 35.8869 53.7806C36.1671 53.6364 36.4088 53.4274 36.592 53.171L39.805 48.671C40.5816 47.583 40.9993 46.2797 41 44.943C41.0001 43.6759 40.625 42.4372 39.922 41.383L39.258 40.383C39.0906 40.1318 39.0009 39.8369 39 39.535C39 39.3334 39.0397 39.1338 39.1168 38.9476C39.194 38.7613 39.3071 38.5921 39.4496 38.4496C39.5921 38.3071 39.7613 38.194 39.9476 38.1168C40.1338 38.0397 40.3334 38 40.535 38C40.9899 37.9999 41.4385 38.1058 41.8454 38.3092C42.2523 38.5127 42.6061 38.808 42.879 39.172L44.6 41.472C44.7249 41.6365 44.8863 41.7698 45.0714 41.8614C45.2566 41.953 45.4604 42.0005 45.667 42C45.8421 42 46.0154 41.9655 46.1771 41.8985C46.3388 41.8315 46.4858 41.7334 46.6096 41.6096C46.7334 41.4858 46.8315 41.3388 46.8985 41.1771C46.9655 41.0154 47 40.8421 47 40.667V38.746C47.0001 37.6072 46.6633 36.4938 46.032 35.546C45.361 34.5403 44.391 33.7707 43.259 33.346L38.15 31.431C37.8122 31.3045 37.521 31.0779 37.3155 30.7814C37.11 30.4849 36.9999 30.1327 37 29.772C37 29.302 36.8133 28.8513 36.481 28.519C36.1487 28.1867 35.698 28 35.228 28C34.2434 28.0002 33.2756 27.7453 32.4188 27.2602C31.562 26.7751 30.8455 26.0763 30.339 25.232L29.339 23.558C29.1184 23.1932 29.0013 22.7753 29 22.349C29 21.726 28.7525 21.1285 28.312 20.688C27.8715 20.2475 27.274 20 26.651 20H24.472C24.1617 20 23.8556 19.9277 23.578 19.789C23.1039 19.5519 22.7052 19.1875 22.4265 18.7366C22.1478 18.2857 22.0001 17.7661 22 17.236C21.9999 15.7655 22.3422 14.3152 23 13L21.414 11.414C21.1489 11.1487 21 10.789 21 10.414C21 10.039 21.149 9.67933 21.4142 9.41415C21.6793 9.14897 22.039 9 22.414 9H24.5C25.163 9 25.7989 8.73661 26.2678 8.26777C26.7366 7.79893 27 7.16304 27 6.5C27 5.83696 26.7366 5.20107 26.2678 4.73223C25.7989 4.26339 25.163 4 24.5 4C23.5395 3.99971 22.6183 3.61809 21.939 2.939Z" fill="#006837"/>
<path d="M46.032 35.547C45.361 34.5413 44.391 33.7717 43.259 33.347L38.15 31.431C37.8122 31.3045 37.521 31.0779 37.3155 30.7814C37.11 30.4849 36.9999 30.1328 37 29.772C37 29.3021 36.8133 28.8514 36.481 28.519C36.1487 28.1867 35.698 28 35.228 28C34.2434 28.0002 33.2756 27.7453 32.4188 27.2602C31.562 26.7751 30.8455 26.0764 30.339 25.232L29.339 23.558C29.1184 23.1932 29.0013 22.7753 29 22.349C29 21.726 28.7525 21.1286 28.312 20.688C27.8715 20.2475 27.274 20 26.651 20H24.472C24.1617 20 23.8556 19.9278 23.578 19.789C23.1039 19.5519 22.7052 19.1875 22.4265 18.7366C22.1478 18.2857 22.0001 17.7661 22 17.236C21.9999 15.7655 22.3422 14.3152 23 13L21.414 11.414C21.2162 11.2163 21.0815 10.9643 21.0269 10.69C20.9723 10.4157 21.0003 10.1313 21.1073 9.87288C21.2144 9.61447 21.3957 9.39361 21.6283 9.23825C21.8609 9.08288 22.1343 8.99998 22.414 9.00004H24.5C25.163 9.00004 25.7989 8.73665 26.2678 8.26781C26.7366 7.79897 27 7.16308 27 6.50004C27 5.837 26.7366 5.20111 26.2678 4.73227C25.7989 4.26343 25.163 4.00004 24.5 4.00004C23.5395 3.99975 22.6183 3.61813 21.939 2.93904L21.139 2.13904C20.7047 1.70507 20.1736 1.38046 19.5893 1.19195C19.0051 1.00344 18.3844 0.956408 17.7784 1.05474C17.1724 1.15307 16.5984 1.39395 16.1037 1.75754C15.609 2.12113 15.2078 2.59702 14.933 3.14604L13.008 6.98404L12.5 8.00904C12.3514 8.30635 12.1231 8.55649 11.8406 8.73149C11.558 8.9065 11.2324 8.99948 10.9 9.00004C10.3474 9.00223 9.80813 8.82987 9.35921 8.50755C8.91028 8.18522 8.57459 7.72939 8.4 7.20504C8.30509 6.91999 8.13888 6.66394 7.91715 6.46123C7.69541 6.25851 7.42553 6.11585 7.13314 6.04681C6.84075 5.97777 6.53556 5.98464 6.24657 6.06677C5.95758 6.14889 5.69439 6.30355 5.482 6.51604L4.619 7.37904C4.22157 7.77619 3.68286 7.99952 3.121 8.00004C3.084 8.00004 3.048 8.00904 3.011 8.01104C3.011 8.04804 3 8.08404 3 8.12104V15.464C3.00013 16.1633 3.20758 16.8468 3.59613 17.4282C3.98468 18.0096 4.53688 18.4627 5.18292 18.7303C5.82896 18.9978 6.53983 19.0679 7.22566 18.9315C7.91149 18.7951 8.54148 18.4584 9.036 17.964L9.226 17.774L11.226 15.774C11.472 15.528 11.7642 15.3329 12.0858 15.2001C12.4074 15.0673 12.7521 14.9993 13.1 15C13.6535 15.0014 14.1925 15.1766 14.6411 15.5008C15.0897 15.825 15.4251 16.2819 15.6 16.807L15.793 17.384C17.2429 21.7349 19.6861 25.6883 22.929 28.931C24.3035 30.3072 25.8108 31.5439 27.429 32.623L34.083 37.059C34.9788 37.6562 35.7133 38.4652 36.2213 39.4144C36.7293 40.3636 36.9952 41.4235 36.9952 42.5C36.9952 43.5766 36.7293 44.6365 36.2213 45.5857C35.7133 46.5349 34.9788 47.3439 34.083 47.941L33.946 48.033C33.4627 48.7903 32.8285 49.4398 32.083 49.941L30.62 50.917C29.8026 51.4618 28.8716 51.8127 27.898 51.943C26.9244 52.0733 25.9339 51.9796 25.002 51.669L23.944 51.316C23.3171 51.1075 22.6607 51.0008 22 51C22 51.5305 22.2107 52.0392 22.5858 52.4143C22.9609 52.7893 23.4696 53 24 53C25.2982 53 26.5614 53.4211 27.6 54.2L29.6 55.7C29.7242 55.7932 29.825 55.914 29.8944 56.0528C29.9639 56.1917 30 56.3448 30 56.5C29.9967 56.8677 30.0753 57.2314 30.23 57.5649C30.3847 57.8984 30.6117 58.1934 30.8944 58.4283C31.1772 58.6632 31.5088 58.8323 31.865 58.9232C32.2212 59.0141 32.5932 59.0247 32.954 58.954C32.9831 58.8044 32.9985 58.6525 33 58.5V55.981C33 55.4556 33.2087 54.9518 33.5802 54.5803C33.9517 54.2088 34.4556 54 34.981 54H35C35.3117 53.9972 35.6184 53.9209 35.895 53.7772C36.1717 53.6335 36.4105 53.4265 36.592 53.173L37.476 51.936L39.805 48.676C40.5617 47.6161 40.9782 46.351 40.9991 45.0488C41.02 43.7465 40.6443 42.4688 39.922 41.385L39.258 40.385C39.1043 40.1539 39.0161 39.8854 39.0029 39.6081C38.9897 39.3309 39.0519 39.0552 39.1829 38.8105C39.314 38.5658 39.5089 38.3612 39.747 38.2184C39.9851 38.0757 40.2574 38.0003 40.535 38C40.988 38.0103 41.4331 38.1207 41.8383 38.3234C42.2436 38.526 42.599 38.8158 42.879 39.172L44.6 41.472C44.7681 41.6955 45.0022 41.8605 45.2692 41.9437C45.5362 42.0268 45.8226 42.024 46.0878 41.9356C46.3531 41.8472 46.5839 41.6776 46.7476 41.4509C46.9113 41.2241 46.9996 40.9517 47 40.672V38.746C46.9999 37.6076 46.6631 36.4946 46.032 35.547Z" fill="#009245"/>
<path d="M44 61C53.3888 61 61 53.3888 61 44C61 34.6112 53.3888 27 44 27C34.6112 27 27 34.6112 27 44C27 53.3888 34.6112 61 44 61Z" fill="#159B1A"/>
<path d="M44 27C40.4697 26.9984 37.0274 28.102 34.156 30.156C31.8229 33.4273 30.7252 37.4199 31.058 41.4241C31.3909 45.4284 33.1327 49.185 35.9739 52.0262C38.8151 54.8674 42.5716 56.6092 46.5759 56.942C50.5802 57.2749 54.5727 56.1772 57.844 53.844C59.6561 51.3032 60.733 48.3122 60.9565 45.1994C61.1801 42.0866 60.5415 38.9724 59.1111 36.1987C57.6807 33.4251 55.5136 31.0992 52.8479 29.4764C50.1822 27.8537 47.1208 26.9969 44 27Z" fill="#2BB22B"/>
<path d="M61 44C60.9979 40.5308 59.9339 37.1454 57.951 34.2987C55.9681 31.452 53.1614 29.2805 49.908 28.076L49.992 59.8931C53.2249 58.677 56.0104 56.5045 57.9771 53.665C59.9438 50.8256 60.9983 47.4541 61 44Z" fill="#C1272D"/>
<path d="M44 27C41.9493 27.0035 39.9162 27.3796 38 28.11V59.89C41.8607 61.368 46.1313 61.368 49.992 59.89L49.908 28.073C48.0183 27.3662 46.0175 27.0028 44 27Z" fill="#E6E6E6"/>
<path d="M38 28.111V53.726C41.4412 56.2773 45.7335 57.4038 49.984 56.871L49.915 28.079C46.0736 26.6295 41.8336 26.6408 38 28.111Z" fill="white"/>
<path d="M49.926 28.083L49.986 56.871C52.8185 56.54 55.5215 55.4988 57.844 53.844C59.6211 51.3588 60.6924 48.4389 60.944 45.394V45.363C60.9814 44.913 61 44.4587 61 44C60.9979 40.5341 59.9359 37.1518 57.9565 34.3067C55.9771 31.4617 53.175 29.29 49.926 28.083Z" fill="#DD1F2D"/>
<path d="M11.084 33C11.6734 32.9999 12.2537 33.1454 12.7734 33.4235C13.293 33.7015 13.736 34.1036 14.063 34.594C14.674 35.5109 15 36.5881 15 37.69C15 38.1055 14.9182 38.5169 14.7591 38.9008C14.6001 39.2846 14.3669 39.6333 14.073 39.927C13.7328 40.2673 13.4629 40.6712 13.2788 41.1158C13.0947 41.5603 13 42.0368 13 42.518V45.382C12.9997 45.7884 12.9052 46.1892 12.724 46.553C12.5065 46.9879 12.1722 47.3536 11.7586 47.6092C11.3449 47.8648 10.8682 48.0001 10.382 48H10.14C9.30722 48 8.50855 47.6692 7.91968 47.0803C7.33082 46.4915 7 45.6928 7 44.86C7.00008 44.2945 7.1319 43.7367 7.385 43.231C7.78921 42.4214 7.99975 41.5289 8 40.624C7.99983 39.5562 7.75128 38.5032 7.274 37.548C7.09407 37.1878 7.00028 36.7907 7 36.388C6.99996 35.961 7.10536 35.5406 7.30685 35.1641C7.50834 34.7877 7.79968 34.4668 8.155 34.23L9.1 33.6C9.6877 33.2087 10.378 33 11.084 33Z" fill="#006837"/>
<path d="M14.0631 34.594C13.6749 33.9988 13.1155 33.5352 12.4585 33.2646C11.8014 32.9939 11.0778 32.9289 10.3831 33.078L10.1551 33.23C9.62897 33.5806 9.24908 34.1113 9.08684 34.7223C8.9246 35.3334 8.99118 35.9826 9.27406 36.548C9.75134 37.5032 9.99989 38.5562 10.0001 39.624C9.9998 40.5289 9.78927 41.4214 9.38506 42.231C9.13196 42.7367 9.00014 43.2945 9.00006 43.86C9.00006 44.2724 9.08128 44.6807 9.23908 45.0616C9.39688 45.4426 9.62817 45.7887 9.91974 46.0803C10.2113 46.3719 10.5575 46.6032 10.9384 46.761C11.3194 46.9188 11.7277 47 12.1401 47H12.3821C12.3951 47 12.4061 46.995 12.4191 46.995C12.8085 46.5494 13.0159 45.9736 13.0001 45.382V42.518C13 42.0368 13.0948 41.5603 13.2789 41.1158C13.463 40.6712 13.7328 40.2673 14.0731 39.927C14.367 39.6333 14.6001 39.2846 14.7592 38.9008C14.9182 38.5169 15.0001 38.1055 15.0001 37.69C15.0001 36.5881 14.6741 35.5109 14.0631 34.594Z" fill="#009245"/>
<path d="M6.00003 44.86C6.00109 45.9577 6.43761 47.0101 7.21378 47.7862C7.98995 48.5624 9.04236 48.9989 10.14 49H10.382C11.3416 49 12.2618 48.6188 12.9403 47.9403C13.6189 47.2618 14 46.3415 14 45.382V42.518C13.999 42.168 14.0675 41.8213 14.2013 41.4979C14.3352 41.1745 14.5319 40.8809 14.78 40.634C15.1681 40.2482 15.4757 39.7893 15.6852 39.2837C15.8946 38.7782 16.0016 38.2362 16 37.689C16.0028 36.3906 15.62 35.1206 14.9 34.04C14.2262 33.0292 13.1784 32.3275 11.9872 32.0891C10.796 31.8508 9.55894 32.0953 8.54803 32.769L7.60003 33.4C6.87077 33.8861 6.3442 34.6219 6.11935 35.469C5.8945 36.3161 5.98685 37.2162 6.37903 38C6.78551 38.8151 6.99804 39.7132 7.00003 40.624C6.99909 41.3737 6.82453 42.113 6.49003 42.784C6.16836 43.4288 6.00063 44.1394 6.00003 44.86ZM8.16803 37.1C7.99456 36.7527 7.9538 36.354 8.05341 35.9788C8.15302 35.6035 8.38614 35.2775 8.70903 35.062L9.65303 34.433C10.2225 34.0537 10.9193 33.916 11.5903 34.0503C12.2612 34.1846 12.8514 34.5797 13.231 35.149C13.7332 35.9008 14.0008 36.7849 14 37.689C14.0009 37.9734 13.9453 38.2552 13.8365 38.518C13.7276 38.7808 13.5677 39.0194 13.366 39.22C12.9316 39.6521 12.5871 40.166 12.3526 40.7321C12.1182 41.2983 11.9983 41.9053 12 42.518V45.382C11.9997 45.6333 11.9412 45.8811 11.829 46.106C11.6954 46.3752 11.489 46.6017 11.2332 46.7597C10.9775 46.9177 10.6826 47.0009 10.382 47H10.14C9.57263 46.9995 9.02862 46.7738 8.62741 46.3726C8.2262 45.9714 8.00056 45.4274 8.00003 44.86C8.00079 44.4498 8.09627 44.0453 8.27903 43.678C8.75199 42.7293 8.99878 41.684 9.00003 40.624C8.99836 39.4009 8.7136 38.1947 8.16803 37.1Z" fill="#1B1717"/>
<path d="M44 26C41.5236 25.9998 39.0742 26.514 36.807 27.51C36.3458 27.1813 35.7943 27.0032 35.228 27C34.4171 26.9971 33.6207 26.7855 32.9152 26.3857C32.2098 25.9859 31.6191 25.4112 31.2 24.717L30.195 23.043C30.068 22.8338 30.0006 22.5938 30 22.349C29.9992 21.4611 29.6461 20.6097 29.0182 19.9818C28.3903 19.3539 27.539 19.0008 26.651 19H24.472C24.317 18.9995 24.1641 18.9636 24.025 18.895C23.7164 18.7416 23.4568 18.505 23.2757 18.2118C23.0946 17.9186 22.9991 17.5806 23 17.236C23.0015 15.9208 23.3079 14.6239 23.895 13.447C23.9887 13.2593 24.021 13.0468 23.9872 12.8397C23.9535 12.6326 23.8555 12.4413 23.707 12.293L22.121 10.707C22.063 10.6491 22.0235 10.5753 22.0075 10.4949C21.9914 10.4146 21.9996 10.3312 22.031 10.2555C22.0624 10.1798 22.1155 10.1151 22.1837 10.0696C22.2519 10.0241 22.332 9.99992 22.414 10H24.5C25.4283 10 26.3185 9.63127 26.9749 8.97489C27.6313 8.31852 28 7.42828 28 6.50002C28 5.57176 27.6313 4.68152 26.9749 4.02515C26.3185 3.36877 25.4283 3.00002 24.5 3.00002C24.1555 3.00122 23.8142 2.93394 23.4959 2.8021C23.1776 2.67026 22.8887 2.47648 22.646 2.23202L21.846 1.43202C21.2998 0.884912 20.6314 0.475564 19.8958 0.237774C19.1602 -1.61678e-05 18.3786 -0.0594277 17.6156 0.0644449C16.8525 0.188317 16.1299 0.491921 15.5073 0.950187C14.8847 1.40845 14.38 2.00824 14.035 2.70002L11.6 7.56202C11.5342 7.69393 11.4329 7.80484 11.3074 7.88223C11.182 7.95962 11.0374 8.00042 10.89 8.00002C10.5489 8.00051 10.2164 7.89339 9.93969 7.69392C9.66302 7.49445 9.45631 7.21278 9.349 6.88902C9.20022 6.44221 8.93967 6.04087 8.5921 5.72311C8.24453 5.40536 7.82149 5.18175 7.36317 5.07353C6.90484 4.96531 6.42646 4.97608 5.97347 5.10481C5.52048 5.23354 5.10792 5.47595 4.775 5.80902L3.912 6.67202C3.80821 6.77603 3.68491 6.85854 3.54918 6.91483C3.41345 6.97111 3.26794 7.00006 3.121 7.00002C2.2935 7.00081 1.50013 7.32989 0.914997 7.91502C0.329868 8.50014 0.000794533 9.29352 2.62367e-07 10.121V17.464C-0.000304865 18.3612 0.265539 19.2384 0.763892 19.9845C1.26225 20.7306 1.97071 21.3121 2.79965 21.6554C3.62858 21.9987 4.54073 22.0885 5.42068 21.9132C6.30062 21.738 7.10882 21.3057 7.743 20.671L9.933 18.481C10.1311 18.2831 10.3765 18.1391 10.6459 18.0627C10.9153 17.9862 11.1998 17.9798 11.4723 18.0441C11.7449 18.1084 11.9965 18.2413 12.2033 18.4301C12.4101 18.6189 12.5652 18.8574 12.654 19.123L12.846 19.7C14.9943 26.1432 19.2283 31.6868 24.879 35.455L27.374 37.118C26.4616 39.3141 25.9945 41.6696 26 44.0477C26.0055 46.4258 26.4834 48.7792 27.406 50.971C26.702 51.0231 25.9945 50.9378 25.323 50.72L24.265 50.368C23.5347 50.1242 22.7699 49.9999 22 50C21.2044 50 20.4413 50.3161 19.8787 50.8787C19.3161 51.4413 19 52.2044 19 53C19 53.7957 19.3161 54.5587 19.8787 55.1213C20.4413 55.6839 21.2044 56 22 56C23.0815 56.002 24.1336 56.3527 25 57L27 58.5C26.9966 59.3909 27.334 60.2493 27.943 60.8995C28.5519 61.5498 29.3864 61.9426 30.2756 61.9975C31.1648 62.0525 32.0413 61.7654 32.7257 61.1952C33.4101 60.6249 33.8506 59.8145 33.957 58.93C36.291 60.5019 38.9611 61.5046 41.7528 61.8577C44.5446 62.2108 47.3802 61.9045 50.0321 60.9633C52.684 60.0221 55.0783 58.4723 57.0228 56.4382C58.9673 54.4041 60.4078 51.9425 61.2287 49.2509C62.0496 46.5593 62.228 43.7127 61.7495 40.9397C61.2711 38.1667 60.1492 35.5445 58.4739 33.2836C56.7986 31.0227 54.6165 29.186 52.1028 27.9211C49.5892 26.6562 46.814 25.9982 44 26ZM28 44C28.0042 41.003 28.8501 38.0674 30.4413 35.5277C32.0325 32.988 34.305 30.9462 37 29.635V58.365C34.305 57.0538 32.0325 55.0121 30.4413 52.4723C28.8501 49.9326 28.0042 46.997 28 44ZM25.989 33.791C20.7077 30.2702 16.7505 25.0895 14.743 19.068L14.551 18.491C14.3546 17.9019 14.0109 17.3728 13.5526 16.9539C13.0942 16.535 12.5363 16.2402 11.932 16.0975C11.3276 15.9548 10.6968 15.969 10.0995 16.1387C9.50214 16.3084 8.9581 16.6279 8.519 17.067L6.329 19.257C5.97434 19.6116 5.5225 19.8531 5.03063 19.9509C4.53875 20.0487 4.02891 19.9985 3.56558 19.8066C3.10224 19.6146 2.7062 19.2897 2.42754 18.8727C2.14887 18.4557 2.00009 17.9655 2 17.464V10.121C2.00027 9.82379 2.11845 9.53882 2.32863 9.32864C2.5388 9.11847 2.82377 9.00028 3.121 9.00002C3.53104 9.0012 3.93724 8.92103 4.31607 8.76414C4.69491 8.60725 5.03886 8.37676 5.328 8.08602L6.191 7.22302C6.28588 7.13783 6.4 7.07692 6.52358 7.04548C6.64716 7.01404 6.77651 7.01303 6.90057 7.04252C7.02462 7.07201 7.13968 7.13113 7.23589 7.21481C7.3321 7.29849 7.4066 7.40425 7.453 7.52302C7.69322 8.2449 8.15477 8.87275 8.77211 9.3174C9.38945 9.76205 10.1312 10.0009 10.892 10C11.4113 10.0023 11.9208 9.85893 12.3628 9.58618C12.8047 9.31344 13.1612 8.92224 13.392 8.45702L15.826 3.58902C16.0299 3.18237 16.3274 2.82992 16.6941 2.56064C17.0608 2.29135 17.4861 2.11292 17.9351 2.04C18.3841 1.96708 18.8441 2.00176 19.2771 2.14118C19.7101 2.28061 20.1039 2.5208 20.426 2.84202L21.226 3.64202C21.6544 4.07418 22.1645 4.41681 22.7266 4.64995C23.2886 4.88309 23.8915 5.00209 24.5 5.00002C24.8978 5.00002 25.2794 5.15805 25.5607 5.43936C25.842 5.72066 26 6.10219 26 6.50002C26 6.89784 25.842 7.27938 25.5607 7.56068C25.2794 7.84198 24.8978 8.00002 24.5 8.00002H22.414C21.9365 8 21.4698 8.14157 21.0728 8.40682C20.6758 8.67208 20.3664 9.0491 20.1837 9.49021C20.001 9.93132 19.9531 10.4167 20.0463 10.885C20.1395 11.3533 20.3694 11.7834 20.707 12.121L21.802 13.221C21.2749 14.4954 21.0031 15.8609 21.002 17.24C20.9996 17.9564 21.1979 18.6592 21.5746 19.2687C21.9512 19.8781 22.4911 20.3698 23.133 20.688C23.5493 20.8938 24.0076 21.0006 24.472 21H26.651C27.0087 21.0003 27.3517 21.1425 27.6046 21.3954C27.8575 21.6484 27.9997 21.9913 28 22.349C28 22.9564 28.1652 23.5524 28.478 24.073L29.478 25.747C29.9876 26.5885 30.6753 27.308 31.4929 27.8552C32.3104 28.4023 33.2378 28.7637 34.21 28.914C31.7332 30.525 29.6881 32.7174 28.253 35.3L25.989 33.791ZM32 58.5C32 58.8978 31.842 59.2794 31.5607 59.5607C31.2794 59.842 30.8978 60 30.5 60C30.1022 60 29.7206 59.842 29.4393 59.5607C29.158 59.2794 29 58.8978 29 58.5C28.9993 58.1897 28.9267 57.8837 28.7879 57.6061C28.6491 57.3285 28.4479 57.0868 28.2 56.9L26.2 55.4C24.987 54.4938 23.5141 54.0029 22 54C21.7348 54 21.4804 53.8947 21.2929 53.7071C21.1054 53.5196 21 53.2652 21 53C21 52.7348 21.1054 52.4804 21.2929 52.2929C21.4804 52.1054 21.7348 52 22 52C22.5551 51.9998 23.1065 52.0893 23.633 52.265L24.69 52.618C25.8719 53.0046 27.1316 53.0902 28.355 52.867C29.3195 54.5569 30.5503 56.0802 32 57.378V58.5ZM39 59.189V28.811C42.2149 27.7411 45.6881 27.7295 48.91 28.778L48.99 59.192C45.7475 60.2713 42.2425 60.2713 39 59.192V59.189ZM50.988 58.371L50.912 29.592C53.626 30.8875 55.9189 32.9233 57.5267 35.4648C59.1345 38.0063 59.9917 40.9503 59.9996 43.9576C60.0076 46.965 59.1659 49.9134 57.5716 52.4634C55.9773 55.0134 53.6951 57.0612 50.988 58.371Z" fill="#1B1717"/>
</svg>
