<svg width="14" height="15" viewBox="0 0 14 15" fill="none" xmlns="http://www.w3.org/2000/svg">
<path d="M7.81671 7.08584C7.87138 7.14007 7.91478 7.20458 7.94439 7.27567C7.97401 7.34675 7.98926 7.423 7.98926 7.50001C7.98926 7.57701 7.97401 7.65326 7.94439 7.72434C7.91478 7.79543 7.87138 7.85994 7.81671 7.91417L5.13921 10.5858C5.08453 10.6401 5.04114 10.7046 5.01152 10.7757C4.98191 10.8468 4.96666 10.923 4.96666 11C4.96666 11.077 4.98191 11.1533 5.01152 11.2243C5.04114 11.2954 5.08453 11.3599 5.13921 11.4142C5.2485 11.5228 5.39635 11.5838 5.55046 11.5838C5.70457 11.5838 5.85241 11.5228 5.96171 11.4142L8.63921 8.73667C8.96693 8.40855 9.151 7.96376 9.151 7.50001C9.151 7.03625 8.96693 6.59146 8.63921 6.26334L5.96171 3.58584C5.85306 3.47807 5.70641 3.41732 5.55338 3.41667C5.4766 3.41623 5.4005 3.43094 5.32943 3.45997C5.25836 3.489 5.19372 3.53178 5.13921 3.58584C5.08453 3.64007 5.04114 3.70458 5.01152 3.77567C4.98191 3.84675 4.96666 3.923 4.96666 4.00001C4.96666 4.07701 4.98191 4.15326 5.01152 4.22434C5.04114 4.29543 5.08453 4.35994 5.13921 4.41417L7.81671 7.08584Z" fill="white"/>
</svg>
