<svg width="20" height="20" viewBox="0 0 20 20" fill="none" xmlns="http://www.w3.org/2000/svg">
<g clip-path="url(#clip0_1_603)">
<path d="M14.3083 20C14.1986 20.0006 14.0899 19.9796 13.9884 19.9381C13.8869 19.8967 13.7945 19.8356 13.7167 19.7583L6.90832 12.95C6.52029 12.5629 6.21244 12.1031 6.00238 11.5969C5.79233 11.0907 5.6842 10.5481 5.6842 9.99999C5.6842 9.45193 5.79233 8.90925 6.00238 8.40304C6.21244 7.89683 6.52029 7.43704 6.90832 7.04999L13.7167 0.241658C13.7944 0.16396 13.8866 0.102326 13.9881 0.0602753C14.0896 0.018225 14.1984 -0.00341797 14.3083 -0.00341797C14.4182 -0.00341797 14.527 0.018225 14.6285 0.0602753C14.73 0.102326 14.8223 0.16396 14.9 0.241658C14.9777 0.319357 15.0393 0.411599 15.0814 0.513117C15.1234 0.614636 15.1451 0.723442 15.1451 0.833325C15.1451 0.943208 15.1234 1.05201 15.0814 1.15353C15.0393 1.25505 14.9777 1.34729 14.9 1.42499L8.09165 8.23333C7.62348 8.70208 7.36052 9.33749 7.36052 9.99999C7.36052 10.6625 7.62348 11.2979 8.09165 11.7667L14.9 18.575C14.9781 18.6525 15.0401 18.7446 15.0824 18.8462C15.1247 18.9477 15.1465 19.0566 15.1465 19.1667C15.1465 19.2767 15.1247 19.3856 15.0824 19.4871C15.0401 19.5887 14.9781 19.6809 14.9 19.7583C14.8221 19.8356 14.7298 19.8967 14.6282 19.9381C14.5267 19.9796 14.418 20.0006 14.3083 20Z" fill="white"/>
</g>
<defs>
<clipPath id="clip0_1_603">
<rect width="20" height="20" fill="white"/>
</clipPath>
</defs>
</svg>
