<svg width="12" height="13" viewBox="0 0 12 13" fill="none" xmlns="http://www.w3.org/2000/svg">
<g clip-path="url(#clip0_1_1629)">
<path d="M6 12.5C2.6915 12.5 0 9.8085 0 6.5C0 3.1915 2.6915 0.5 6 0.5C9.3085 0.5 12 3.1915 12 6.5C12 9.8085 9.3085 12.5 6 12.5ZM6 1.5C3.243 1.5 1 3.743 1 6.5C1 9.257 3.243 11.5 6 11.5C8.757 11.5 11 9.257 11 6.5C11 3.743 8.757 1.5 6 1.5ZM6.25 6.933L7.982 5.933C8.2215 5.795 8.303 5.489 8.165 5.25C8.0265 5.0105 7.7205 4.928 7.482 5.067L6.5 5.634V3.5C6.5 3.2235 6.276 3 6 3C5.724 3 5.5 3.2235 5.5 3.5V6.5C5.5 6.6785 5.595 6.844 5.75 6.933C5.8275 6.9775 5.9135 7 6 7C6.0865 7 6.1725 6.9775 6.25 6.933Z" fill="white"/>
</g>
<defs>
<clipPath id="clip0_1_1629">
<rect width="12" height="12" fill="white" transform="translate(0 0.5)"/>
</clipPath>
</defs>
</svg>
