<svg width="14" height="14" viewBox="0 0 14 14" fill="none" xmlns="http://www.w3.org/2000/svg">
<g clip-path="url(#clip0_1_1693)">
<path d="M0.774089 7.23335L2.85076 8.75001L2.06209 11.1924C1.93464 11.5712 1.93302 11.9811 2.05749 12.3609C2.18195 12.7407 2.42582 13.0701 2.75276 13.3C3.07409 13.5373 3.46348 13.6644 3.86293 13.6624C4.26237 13.6604 4.65048 13.5294 4.96942 13.2889L7.00001 11.7944L9.03117 13.2872C9.35192 13.5231 9.73922 13.6513 10.1374 13.6532C10.5356 13.6551 10.9241 13.5308 11.2471 13.298C11.5702 13.0652 11.811 12.736 11.9352 12.3576C12.0593 11.9793 12.0603 11.5713 11.9379 11.1924L11.1493 8.75001L13.2259 7.23335C13.5463 6.99914 13.7844 6.6697 13.9063 6.29207C14.0282 5.91445 14.0277 5.50796 13.9047 5.13066C13.7818 4.75336 13.5428 4.42455 13.2219 4.19121C12.9009 3.95786 12.5144 3.83191 12.1176 3.83135H9.56667L8.79259 1.41868C8.67086 1.03891 8.43166 0.707605 8.10949 0.472552C7.78731 0.237499 7.39881 0.11084 7.00001 0.11084C6.6012 0.11084 6.2127 0.237499 5.89052 0.472552C5.56835 0.707605 5.32915 1.03891 5.20742 1.41868L4.43334 3.83135H1.88476C1.48794 3.83191 1.10145 3.95786 0.780494 4.19121C0.459537 4.42455 0.220529 4.75336 0.0976099 5.13066C-0.0253098 5.50796 -0.0258538 5.91445 0.0960554 6.29207C0.217965 6.6697 0.456091 6.99914 0.776422 7.23335H0.774089Z" fill="#F2C94C"/>
</g>
<defs>
<clipPath id="clip0_1_1693">
<rect width="14" height="14" fill="white"/>
</clipPath>
</defs>
</svg>
