<svg width="14" height="14" viewBox="0 0 14 14" fill="none" xmlns="http://www.w3.org/2000/svg">
<path d="M9.84041 14.0001H4.47872V12.5106H3.63354C2.76621 12.5071 1.99051 11.9698 1.68246 11.1591L1.36972 10.3213C1.32619 10.2048 1.21482 10.1276 1.09046 10.1277H0.904256C0.640927 10.128 0.390906 10.0124 0.220845 9.81134C0.0507826 9.61041 -0.0220855 9.34468 0.0217663 9.08517C0.0925618 8.66061 0.483519 8.34045 0.934035 8.34045H1.60425C2.20006 8.33969 2.73905 8.6941 2.97445 9.24149L3.32821 10.0644C3.42202 10.2833 3.63725 10.4254 3.87548 10.4256H4.47872C4.53086 9.69571 4.77281 9.11866 5.18613 8.71276L5.26805 8.63454C3.37653 8.00906 2.09578 6.47501 2.09578 4.76599C2.0996 4.06676 2.30664 3.38379 2.69149 2.79997V1.56012C2.69138 1.07568 2.80352 0.597674 3.01918 0.163848L3.10481 3.39475e-06H3.61859C4.25128 -0.00250554 4.85866 0.248169 5.30536 0.696286L5.44684 0.837768C6.56789 0.511934 7.75866 0.511934 8.87982 0.837768L9.0213 0.696286C9.46702 0.249151 10.0729 -0.00152378 10.7043 3.39475e-06H11.218L11.3 0.163848C11.5156 0.597674 11.6278 1.07568 11.6276 1.56012V2.79997C12.0125 3.38379 12.2195 4.06676 12.2234 4.76599C12.2234 6.47501 10.9425 8.00906 9.05108 8.63454L9.12177 8.70534C9.57981 9.15477 9.83867 9.76891 9.84041 10.4106V14.0001ZM5.07443 13.4042H9.24471V10.4106C9.24263 9.92992 9.04825 9.46991 8.70474 9.13349L7.87821 8.32551L8.40694 8.20268C10.3021 7.75587 11.6276 6.34465 11.6276 4.76599C11.6235 4.15447 11.4339 3.55854 11.084 3.05697L11.0319 2.98247V1.56012C11.032 1.22938 10.9675 0.9018 10.842 0.59582H10.7043C10.2303 0.595384 9.77584 0.784317 9.44204 1.12073L9.03985 1.51922L8.86488 1.45955C7.75626 1.10099 6.56288 1.10099 5.45426 1.45955L5.27929 1.51922L4.87709 1.12073C4.5433 0.784317 4.08885 0.595384 3.61488 0.59582H3.47711C3.35166 0.9018 3.28709 1.22938 3.28719 1.56012V2.98247L3.23505 3.05697C2.88522 3.55854 2.69563 4.15447 2.69149 4.76599C2.69149 6.34465 4.01697 7.75587 5.91219 8.19897L6.44092 8.3218L5.60316 9.14102C5.29412 9.44253 5.11544 9.88934 5.07072 10.4739C5.04563 10.7825 4.7883 11.0203 4.47872 11.0213H3.87548C3.39901 11.0211 2.96845 10.7369 2.78083 10.2989L2.43089 9.47613C2.28929 9.14767 1.96553 8.93529 1.60796 8.93616H0.937744C0.777609 8.93616 0.636127 9.04415 0.613874 9.18193C0.598493 9.26821 0.621946 9.3569 0.677906 9.42431C0.733866 9.49172 0.816661 9.53111 0.904256 9.53198H1.08664C1.45949 9.53274 1.79296 9.76389 1.92441 10.1127L2.23726 10.9468C2.45663 11.528 3.0123 11.9132 3.63354 11.9149H4.47872C4.80772 11.9149 5.07443 12.1816 5.07443 12.5106V13.4042Z" fill="#333333"/>
</svg>
