<svg width="65" height="64" viewBox="0 0 65 64" fill="none" xmlns="http://www.w3.org/2000/svg">
<path d="M49.1681 22.121C49.2284 22.0698 49.3016 22.0362 49.3798 22.0239C49.458 22.0116 49.538 22.0212 49.6111 22.0515C49.6842 22.0818 49.7475 22.1316 49.7941 22.1956C49.8406 22.2596 49.8687 22.3351 49.8751 22.414C49.8758 23.0996 50.1486 23.7569 50.6334 24.2417C51.1181 24.7265 51.7754 24.9992 52.4611 25C53.0409 25.0016 53.6154 24.8881 54.1511 24.6662C54.6868 24.4442 55.1732 24.1182 55.5821 23.707L62.4011 16.888C62.8698 16.4218 63.2414 15.8673 63.4944 15.2566C63.7474 14.6459 63.8768 13.9911 63.8751 13.33C63.8742 12.5006 63.5642 11.7014 63.0056 11.0884C62.4469 10.4753 61.6798 10.0926 60.8541 10.015C60.7771 9.45706 60.5009 8.94578 60.0766 8.57546C59.6522 8.20513 59.1083 8.00075 58.5451 8C58.3224 7.99921 58.1075 7.91852 57.9394 7.77261C57.7713 7.6267 57.6612 7.42528 57.6291 7.205C57.3758 5.48608 56.5147 3.91489 55.2022 2.77645C53.8896 1.63801 52.2125 1.00775 50.4751 1C49.7934 1.00147 49.1331 1.23835 48.6059 1.67057C48.0788 2.10279 47.7171 2.70382 47.5821 3.372C47.4322 4.11253 47.0312 4.77857 46.4468 5.25745C45.8624 5.73633 45.1306 5.99864 44.3751 6C43.712 6 43.0761 6.26339 42.6073 6.73223C42.1384 7.20107 41.8751 7.83696 41.8751 8.5C41.8751 9.16304 42.1384 9.79893 42.6073 10.2678C43.0761 10.7366 43.712 11 44.3751 11H45.5751C45.6412 10.9977 45.7062 11.0174 45.7599 11.0559C45.8137 11.0944 45.8533 11.1496 45.8724 11.2129C45.8916 11.2762 45.8893 11.3441 45.8659 11.406C45.8425 11.4678 45.7993 11.5202 45.7431 11.555L36.3571 17.812C35.4 18.4435 34.3049 18.8352 33.1644 18.9539C32.0239 19.0726 30.8717 18.9149 29.8051 18.494L27.3991 17.532C27.1735 17.442 26.9704 17.3039 26.8039 17.1271C26.6374 16.9504 26.5115 16.7395 26.4351 16.509C26.1921 15.7775 25.7246 15.1412 25.099 14.6907C24.4735 14.2403 23.7219 13.9986 22.9511 14C22.6657 14 22.392 13.8866 22.1902 13.6848C21.9884 13.4831 21.8751 13.2094 21.8751 12.924V10.333C21.8746 9.42371 21.5882 8.53758 21.0564 7.80005C20.5245 7.06252 19.7742 6.51095 18.9116 6.22341C18.049 5.93586 17.1177 5.92692 16.2497 6.19784C15.3818 6.46876 14.621 7.00582 14.0751 7.733L12.4561 9.893C12.0797 10.3951 11.8758 11.0055 11.8751 11.633C11.8746 11.8212 11.8151 12.0046 11.7049 12.1572C11.5948 12.3099 11.4395 12.4242 11.2611 12.484C10.5651 12.7154 9.9598 13.1605 9.53142 13.7559C9.10303 14.3512 8.87335 15.0665 8.87505 15.8C8.8727 16.5052 8.64199 17.1908 8.21746 17.7539C7.79292 18.3171 7.1974 18.7276 6.52005 18.924L6.12005 19.036C5.08783 19.3329 4.15708 19.9079 3.42949 20.698C2.70189 21.4881 2.20544 22.4629 1.99438 23.5161C1.78332 24.5692 1.86576 25.6601 2.23271 26.6696C2.59965 27.679 3.23698 28.5682 4.07505 29.24L5.69105 30.532C6.06158 30.8276 6.36052 31.2031 6.56554 31.6305C6.77057 32.0578 6.87637 32.526 6.87505 33C6.87297 33.7742 7.04614 34.5388 7.3816 35.2366C7.71706 35.9343 8.20609 36.5471 8.81205 37.029C11.2157 38.9483 14.1992 39.9956 17.2751 40H17.7541C18.6439 40.0004 19.5217 39.795 20.3191 39.4C20.8376 39.1392 21.4096 39.0023 21.9901 39C22.7547 39 23.488 39.3035 24.029 39.8439C24.57 40.3843 24.8743 41.1174 24.8751 41.882V43.865C24.8721 44.9907 25.0924 46.1059 25.5232 47.1459C25.9541 48.1859 26.5869 49.1301 27.3851 49.924C27.7983 50.3364 28.3034 50.6449 28.8591 50.824C29.8855 53.8322 31.6906 56.5148 34.0907 58.5986C36.4908 60.6825 39.4001 62.0933 42.5226 62.6874C45.6451 63.2815 48.8693 63.0377 51.8669 61.9809C54.8646 60.924 57.5287 59.0918 59.5882 56.6707C61.6476 54.2497 63.0288 51.3262 63.5913 48.1978C64.1537 45.0695 63.8773 41.848 62.7901 38.8612C61.703 35.8744 59.8439 33.2289 57.4021 31.1941C54.9603 29.1593 52.0229 27.8077 48.8891 27.277C48.8891 27.186 48.8751 27.095 48.8751 27.004C48.8751 26.4736 48.6643 25.9649 48.2893 25.5898C47.9142 25.2147 47.4055 25.004 46.8751 25.004C46.8746 24.8182 46.9109 24.6342 46.982 24.4626C47.053 24.2909 47.1574 24.1351 47.2891 24.004L49.1681 22.121ZM61.8751 45C61.8751 48.1645 60.9367 51.2579 59.1786 53.8891C57.4205 56.5203 54.9216 58.5711 51.998 59.7821C49.0744 60.9931 45.8573 61.3099 42.7536 60.6926C39.6499 60.0752 36.799 58.5513 34.5613 56.3137C32.3237 54.0761 30.7999 51.2251 30.1825 48.1214C29.5651 45.0177 29.882 41.8007 31.093 38.8771C32.304 35.9534 34.3547 33.4546 36.9859 31.6965C39.6171 29.9384 42.7106 29 45.8751 29C50.117 29.005 54.1837 30.6924 57.1832 33.6918C60.1827 36.6913 61.87 40.7581 61.8751 45ZM46.8751 27V27.051C46.5411 27.032 46.2101 27 45.8751 27C43.2806 26.9814 40.7132 27.5278 38.3513 28.6014C35.9893 29.675 33.8895 31.2499 32.1975 33.2169C30.5056 35.1838 29.2622 37.4955 28.5538 39.9914C27.8453 42.4873 27.6888 45.1075 28.0951 47.67C27.3015 46.5618 26.8749 45.233 26.8751 43.87V41.882C26.8737 40.5876 26.359 39.3466 25.4437 38.4314C24.5284 37.5161 23.2874 37.0013 21.9931 37C21.1032 36.9996 20.2254 37.205 19.4281 37.6C18.9095 37.8608 18.3375 37.9977 17.7571 38H17.2751C14.6522 37.9969 12.108 37.1042 10.0581 35.468C9.68771 35.1723 9.38896 34.7967 9.18411 34.3694C8.97926 33.942 8.87361 33.4739 8.87505 33C8.87699 32.2257 8.70376 31.4609 8.36832 30.7631C8.03288 30.0652 7.54392 29.4522 6.93805 28.97L5.32305 27.678C4.77028 27.2354 4.34995 26.6493 4.10807 25.9838C3.86619 25.3182 3.81209 24.599 3.9517 23.9048C4.0913 23.2106 4.41923 22.5681 4.89958 22.0479C5.37993 21.5276 5.99417 21.1495 6.67505 20.955L7.07505 20.843C8.16785 20.5251 9.12846 19.8621 9.81336 18.9532C10.4983 18.0442 10.8707 16.9381 10.8751 15.8C10.8745 15.4871 10.9727 15.1819 11.1557 14.9281C11.3386 14.6742 11.597 14.4845 11.8941 14.386C12.4714 14.1931 12.9734 13.8234 13.329 13.3293C13.6845 12.8352 13.8756 12.2417 13.8751 11.633C13.8745 11.4385 13.9377 11.2491 14.0551 11.094L15.6751 8.934C15.9688 8.54201 16.3784 8.25242 16.8459 8.10627C17.3135 7.96012 17.8151 7.96482 18.2798 8.11972C18.7445 8.27462 19.1487 8.57185 19.435 8.96928C19.7213 9.36671 19.8753 9.84417 19.8751 10.334V12.925C19.8764 13.7403 20.2009 14.5218 20.7775 15.0982C21.3541 15.6747 22.1357 15.9989 22.9511 16C23.3014 15.9995 23.643 16.1094 23.9272 16.3143C24.2114 16.5192 24.4238 16.8085 24.5341 17.141C24.7024 17.6473 24.9793 18.1108 25.3453 18.499C25.7113 18.8873 26.1576 19.191 26.6531 19.389L29.0601 20.352C30.4278 20.8906 31.905 21.0922 33.367 20.9397C34.829 20.7873 36.2329 20.2852 37.4601 19.476L46.8451 13.219C47.2578 12.9463 47.5716 12.5479 47.7399 12.0828C47.9082 11.6177 47.9222 11.1107 47.7796 10.637C47.637 10.1634 47.3455 9.74833 46.9484 9.45344C46.5513 9.15855 46.0697 8.99954 45.5751 9H44.3751C44.2424 9 44.1153 8.94732 44.0215 8.85355C43.9277 8.75979 43.8751 8.63261 43.8751 8.5C43.8751 8.36739 43.9277 8.24021 44.0215 8.14645C44.1153 8.05268 44.2424 8 44.3751 8C45.5924 7.99746 46.7715 7.57461 47.713 6.80294C48.6545 6.03127 49.3006 4.95813 49.5421 3.765C49.5854 3.54942 49.702 3.35548 49.8721 3.21605C50.0421 3.07662 50.2552 3.00029 50.4751 3C51.7318 3.0053 52.945 3.46106 53.8943 4.28454C54.8437 5.10802 55.4662 6.24463 55.6491 7.488C55.7518 8.18374 56.1005 8.81963 56.6317 9.28046C57.163 9.74129 57.8418 9.99656 58.5451 10C58.6326 10 58.7165 10.0348 58.7784 10.0967C58.8403 10.1585 58.8751 10.2425 58.8751 10.33C58.8756 10.7727 59.0517 11.1972 59.3648 11.5103C59.6778 11.8234 60.1023 11.9995 60.5451 12C60.8976 12.0005 61.2356 12.1408 61.4849 12.3901C61.7342 12.6394 61.8745 12.9774 61.8751 13.33C61.8762 13.7283 61.7983 14.123 61.6459 14.491C61.4935 14.859 61.2695 15.1931 60.9871 15.474L54.1681 22.293C53.9443 22.5178 53.6783 22.696 53.3853 22.8173C53.0923 22.9387 52.7782 23.0008 52.4611 23C52.3057 22.9997 52.1568 22.9379 52.047 22.8281C51.9371 22.7182 51.8753 22.5693 51.8751 22.414C51.8751 21.9365 51.7335 21.4698 51.4683 21.0728C51.203 20.6758 50.826 20.3664 50.3849 20.1837C49.9438 20.001 49.4584 19.9531 48.9901 20.0463C48.5218 20.1395 48.0917 20.3694 47.7541 20.707L45.8751 22.586C45.5569 22.9022 45.3047 23.2784 45.133 23.6928C44.9614 24.1071 44.8737 24.5515 44.8751 25C44.8751 25.5304 45.0858 26.0391 45.4608 26.4142C45.8359 26.7893 46.3446 27 46.8751 27Z" fill="#1B1717"/>
<path d="M42.875 37H40.596L39.823 34.684C39.7573 34.4839 39.63 34.3097 39.4594 34.1862C39.2889 34.0627 39.0836 33.9963 38.873 33.9963C38.6624 33.9963 38.4572 34.0627 38.2866 34.1862C38.116 34.3097 37.9888 34.4839 37.923 34.684L37.154 37H34.875C34.6773 37 34.484 37.0587 34.3196 37.1686C34.1552 37.2785 34.027 37.4346 33.9514 37.6173C33.8757 37.8 33.8559 38.0011 33.8944 38.195C33.933 38.389 34.0282 38.5671 34.168 38.707L35.73 40.271L34.93 42.684C34.865 42.8812 34.863 43.0937 34.9243 43.2921C34.9856 43.4905 35.1071 43.6649 35.272 43.7911C35.4369 43.9173 35.637 43.989 35.8445 43.9964C36.052 44.0037 36.2567 43.9463 36.43 43.832L38.875 42.2L41.32 43.83C41.4934 43.9443 41.6981 44.0017 41.9056 43.9944C42.1131 43.987 42.3132 43.9153 42.478 43.7891C42.6429 43.6629 42.7644 43.4885 42.8257 43.2901C42.887 43.0918 42.885 42.8792 42.82 42.682L42.02 40.269L43.582 38.705C43.7212 38.565 43.8158 38.3871 43.8539 38.1934C43.8921 37.9998 43.8721 37.7992 43.7966 37.617C43.721 37.4347 43.5931 37.2788 43.4292 37.169C43.2652 37.0592 43.0724 37.0004 42.875 37ZM40.168 39.293C40.0369 39.4243 39.9449 39.5896 39.9023 39.7703C39.8597 39.951 39.8683 40.1399 39.927 40.316L40.005 40.551L39.43 40.168C39.2657 40.0584 39.0726 39.9999 38.875 39.9999C38.6775 39.9999 38.4844 40.0584 38.32 40.168L37.745 40.551L37.823 40.316C37.8818 40.1399 37.8903 39.951 37.8478 39.7703C37.8052 39.5896 37.7132 39.4243 37.582 39.293L37.289 39H37.875C38.0848 38.9998 38.2893 38.9337 38.4594 38.811C38.6295 38.6882 38.7567 38.515 38.823 38.316L38.875 38.162L38.927 38.316C38.9933 38.515 39.1205 38.6882 39.2907 38.811C39.4608 38.9337 39.6652 38.9998 39.875 39H40.461L40.168 39.293ZM44.875 45H46.875V47H44.875V45ZM46.875 41H48.875V43H46.875V41ZM46.875 37H48.875V39H46.875V37ZM44.875 33H46.875V35H44.875V33Z" fill="#1B1717"/>
</svg>
