<svg width="63" height="62" viewBox="0 0 63 62" fill="none" xmlns="http://www.w3.org/2000/svg">
<path d="M6.62503 44.86C6.62609 45.9577 7.06261 47.0101 7.83878 47.7862C8.61495 48.5624 9.66736 48.9989 10.765 49H11.007C11.9666 49 12.8868 48.6188 13.5653 47.9403C14.2439 47.2618 14.625 46.3415 14.625 45.382V42.518C14.624 42.168 14.6925 41.8213 14.8263 41.4979C14.9602 41.1745 15.1569 40.8809 15.405 40.634C15.7931 40.2482 16.1007 39.7893 16.3102 39.2837C16.5196 38.7782 16.6266 38.2362 16.625 37.689C16.6278 36.3906 16.245 35.1206 15.525 34.04C14.8512 33.0292 13.8034 32.3275 12.6122 32.0891C11.421 31.8508 10.1839 32.0953 9.17303 32.769L8.22503 33.4C7.49577 33.8861 6.9692 34.6219 6.74435 35.469C6.5195 36.3161 6.61185 37.2162 7.00403 38C7.41051 38.8151 7.62304 39.7132 7.62503 40.624C7.62409 41.3737 7.44953 42.113 7.11503 42.784C6.79336 43.4288 6.62563 44.1394 6.62503 44.86ZM8.79303 37.1C8.61956 36.7527 8.5788 36.354 8.67841 35.9788C8.77802 35.6035 9.01114 35.2775 9.33403 35.062L10.278 34.433C10.8475 34.0537 11.5443 33.916 12.2153 34.0503C12.8862 34.1846 13.4764 34.5797 13.856 35.149C14.3582 35.9008 14.6258 36.7849 14.625 37.689C14.6259 37.9734 14.5703 38.2552 14.4615 38.518C14.3526 38.7808 14.1927 39.0194 13.991 39.22C13.5566 39.6521 13.2121 40.166 12.9776 40.7321C12.7432 41.2983 12.6233 41.9053 12.625 42.518V45.382C12.6247 45.6333 12.5662 45.8811 12.454 46.106C12.3204 46.3752 12.114 46.6017 11.8582 46.7597C11.6025 46.9177 11.3076 47.0009 11.007 47H10.765C10.1976 46.9995 9.65362 46.7738 9.25241 46.3726C8.8512 45.9714 8.62556 45.4274 8.62503 44.86C8.62579 44.4498 8.72127 44.0453 8.90403 43.678C9.37699 42.7293 9.62378 41.684 9.62503 40.624C9.62336 39.4009 9.3386 38.1947 8.79303 37.1Z" fill="#1B1717"/>
<path d="M44.625 26C42.1486 25.9998 39.6992 26.514 37.432 27.51C36.9708 27.1813 36.4193 27.0032 35.853 27C35.0421 26.9971 34.2457 26.7855 33.5402 26.3857C32.8348 25.9858 32.2441 25.4112 31.825 24.717L30.82 23.043C30.693 22.8337 30.6256 22.5938 30.625 22.349C30.6242 21.461 30.2711 20.6097 29.6432 19.9818C29.0153 19.3539 28.164 19.0008 27.276 19H25.097C24.942 18.9995 24.7891 18.9635 24.65 18.895C24.3414 18.7416 24.0818 18.505 23.9007 18.2118C23.7196 17.9186 23.6241 17.5806 23.625 17.236C23.6265 15.9208 23.9329 14.6239 24.52 13.447C24.6137 13.2592 24.646 13.0468 24.6122 12.8397C24.5785 12.6325 24.4805 12.4413 24.332 12.293L22.746 10.707C22.688 10.6491 22.6485 10.5753 22.6325 10.4949C22.6164 10.4145 22.6246 10.3312 22.656 10.2555C22.6874 10.1798 22.7405 10.1151 22.8087 10.0696C22.8769 10.0241 22.957 9.99989 23.039 10H25.125C26.0533 10 26.9435 9.63125 27.5999 8.97487C28.2563 8.31849 28.625 7.42825 28.625 6.5C28.625 5.57174 28.2563 4.6815 27.5999 4.02512C26.9435 3.36875 26.0533 3 25.125 3C24.7805 3.0012 24.4392 2.93392 24.1209 2.80208C23.8026 2.67023 23.5137 2.47645 23.271 2.232L22.471 1.432C21.9248 0.884889 21.2564 0.475541 20.5208 0.237751C19.7852 -3.90559e-05 19.0036 -0.0594505 18.2406 0.064422C17.4775 0.188295 16.7549 0.491898 16.1323 0.950165C15.5097 1.40843 15.005 2.00822 14.66 2.7L12.225 7.562C12.1592 7.69391 12.0579 7.80481 11.9324 7.88221C11.807 7.9596 11.6624 8.00039 11.515 8C11.1739 8.00048 10.8414 7.89337 10.5647 7.6939C10.288 7.49442 10.0813 7.21276 9.974 6.889C9.82522 6.44219 9.56467 6.04084 9.2171 5.72309C8.86953 5.40533 8.44649 5.18173 7.98817 5.07351C7.52984 4.96529 7.05146 4.97606 6.59847 5.10478C6.14548 5.23351 5.73292 5.47593 5.4 5.809L4.537 6.672C4.43321 6.77601 4.30991 6.85852 4.17418 6.9148C4.03845 6.97109 3.89294 7.00004 3.746 7C2.9185 7.00079 2.12513 7.32986 1.54 7.91499C0.954868 8.50012 0.625795 9.2935 0.625 10.121V17.464C0.624695 18.3612 0.890539 19.2384 1.38889 19.9845C1.88725 20.7306 2.59571 21.3121 3.42465 21.6554C4.25358 21.9987 5.16573 22.0884 6.04568 21.9132C6.92562 21.738 7.73382 21.3057 8.368 20.671L10.558 18.481C10.7561 18.2831 11.0015 18.1391 11.2709 18.0626C11.5403 17.9862 11.8248 17.9798 12.0973 18.0441C12.3699 18.1084 12.6215 18.2413 12.8283 18.4301C13.0351 18.6189 13.1902 18.8574 13.279 19.123L13.471 19.7C15.6193 26.1432 19.8533 31.6868 25.504 35.455L27.999 37.118C27.0866 39.3141 26.6195 41.6696 26.625 44.0477C26.6305 46.4258 27.1084 48.7791 28.031 50.971C27.327 51.023 26.6195 50.9378 25.948 50.72L24.89 50.368C24.1597 50.1242 23.3949 49.9999 22.625 50C21.8294 50 21.0663 50.3161 20.5037 50.8787C19.9411 51.4413 19.625 52.2043 19.625 53C19.625 53.7956 19.9411 54.5587 20.5037 55.1213C21.0663 55.6839 21.8294 56 22.625 56C23.7065 56.002 24.7586 56.3527 25.625 57L27.625 58.5C27.6216 59.3909 27.959 60.2493 28.568 60.8995C29.1769 61.5497 30.0114 61.9426 30.9006 61.9975C31.7898 62.0525 32.6663 61.7654 33.3507 61.1951C34.0351 60.6248 34.4756 59.8145 34.582 58.93C36.916 60.5019 39.5861 61.5046 42.3778 61.8577C45.1696 62.2108 48.0052 61.9045 50.6571 60.9633C53.309 60.0221 55.7033 58.4722 57.6478 56.4382C59.5923 54.4041 61.0328 51.9425 61.8537 49.2509C62.6746 46.5593 62.853 43.7127 62.3745 40.9397C61.8961 38.1667 60.7742 35.5445 59.0989 33.2836C57.4236 31.0226 55.2415 29.186 52.7278 27.9211C50.2142 26.6561 47.439 25.9982 44.625 26ZM28.625 44C28.6292 41.003 29.4751 38.0674 31.0663 35.5277C32.6575 32.9879 34.93 30.9462 37.625 29.635V58.365C34.93 57.0538 32.6575 55.012 31.0663 52.4723C29.4751 49.9326 28.6292 46.997 28.625 44ZM26.614 33.791C21.3327 30.2702 17.3755 25.0895 15.368 19.068L15.176 18.491C14.9796 17.9019 14.6359 17.3728 14.1776 16.9539C13.7192 16.5349 13.1613 16.2402 12.557 16.0975C11.9526 15.9548 11.3218 15.969 10.7245 16.1387C10.1271 16.3084 9.5831 16.6279 9.144 17.067L6.954 19.257C6.59934 19.6116 6.1475 19.853 5.65563 19.9508C5.16375 20.0487 4.65391 19.9984 4.19058 19.8065C3.72724 19.6146 3.3312 19.2896 3.05254 18.8727C2.77387 18.4557 2.62509 17.9655 2.625 17.464V10.121C2.62527 9.82377 2.74345 9.53879 2.95363 9.32862C3.1638 9.11845 3.44877 9.00026 3.746 9C4.15604 9.00118 4.56224 8.921 4.94107 8.76411C5.31991 8.60722 5.66386 8.37674 5.953 8.086L6.816 7.223C6.91088 7.13781 7.025 7.07689 7.14858 7.04546C7.27216 7.01402 7.40151 7.013 7.52557 7.04249C7.64962 7.07199 7.76468 7.1311 7.86089 7.21479C7.9571 7.29847 8.0316 7.40422 8.078 7.523C8.31822 8.24488 8.77977 8.87273 9.39711 9.31738C10.0145 9.76203 10.7562 10.0009 11.517 10C12.0363 10.0023 12.5458 9.85891 12.9878 9.58616C13.4297 9.31341 13.7862 8.92222 14.017 8.457L16.451 3.589C16.6549 3.18235 16.9524 2.8299 17.3191 2.56061C17.6858 2.29133 18.1111 2.11289 18.5601 2.03997C19.0091 1.96705 19.4691 2.00173 19.9021 2.14116C20.3351 2.28058 20.7289 2.52078 21.051 2.842L21.851 3.642C22.2794 4.07416 22.7895 4.41679 23.3516 4.64993C23.9136 4.88307 24.5165 5.00207 25.125 5C25.5228 5 25.9044 5.15803 26.1857 5.43934C26.467 5.72064 26.625 6.10217 26.625 6.5C26.625 6.89782 26.467 7.27935 26.1857 7.56066C25.9044 7.84196 25.5228 8 25.125 8H23.039C22.5615 7.99998 22.0948 8.14155 21.6978 8.4068C21.3008 8.67205 20.9914 9.04908 20.8087 9.49019C20.626 9.9313 20.5781 10.4167 20.6713 10.885C20.7645 11.3533 20.9944 11.7834 21.332 12.121L22.427 13.221C21.8999 14.4954 21.6281 15.8609 21.627 17.24C21.6246 17.9564 21.8229 18.6592 22.1996 19.2686C22.5762 19.8781 23.1161 20.3698 23.758 20.688C24.1743 20.8938 24.6326 21.0005 25.097 21H27.276C27.6337 21.0003 27.9767 21.1425 28.2296 21.3954C28.4825 21.6483 28.6247 21.9913 28.625 22.349C28.625 22.9564 28.7902 23.5523 29.103 24.073L30.103 25.747C30.6126 26.5884 31.3003 27.308 32.1179 27.8552C32.9354 28.4023 33.8628 28.7637 34.835 28.914C32.3582 30.525 30.3131 32.7174 28.878 35.3L26.614 33.791ZM32.625 58.5C32.625 58.8978 32.467 59.2794 32.1857 59.5607C31.9044 59.842 31.5228 60 31.125 60C30.7272 60 30.3456 59.842 30.0643 59.5607C29.783 59.2794 29.625 58.8978 29.625 58.5C29.6243 58.1896 29.5517 57.8836 29.4129 57.606C29.2741 57.3284 29.0729 57.0868 28.825 56.9L26.825 55.4C25.612 54.4938 24.1391 54.0029 22.625 54C22.3598 54 22.1054 53.8946 21.9179 53.7071C21.7304 53.5196 21.625 53.2652 21.625 53C21.625 52.7348 21.7304 52.4804 21.9179 52.2929C22.1054 52.1054 22.3598 52 22.625 52C23.1801 51.9998 23.7315 52.0893 24.258 52.265L25.315 52.618C26.4969 53.0046 27.7566 53.0902 28.98 52.867C29.9445 54.5569 31.1753 56.0801 32.625 57.378V58.5ZM39.625 59.189V28.811C42.8399 27.741 46.3131 27.7295 49.535 28.778L49.615 59.192C46.3725 60.2713 42.8675 60.2713 39.625 59.192V59.189ZM51.613 58.371L51.537 29.592C54.251 30.8875 56.5439 32.9232 58.1517 35.4648C59.7595 38.0063 60.6167 40.9502 60.6246 43.9576C60.6326 46.965 59.7909 49.9134 58.1966 52.4634C56.6023 55.0134 54.3201 57.0612 51.613 58.371Z" fill="#1B1717"/>
</svg>
