<svg width="65" height="64" viewBox="0 0 65 64" fill="none" xmlns="http://www.w3.org/2000/svg">
<path d="M3.869 35C4.44449 35 5.00535 34.8187 5.47203 34.482C5.93872 34.1453 6.28753 33.6701 6.469 33.124C6.578 32.7961 6.78764 32.511 7.06809 32.3092C7.34853 32.1074 7.68549 31.9992 8.031 32C8.13966 31.9999 8.24558 32.0341 8.33372 32.0976C8.42186 32.1612 8.48774 32.2509 8.522 32.354C8.77821 33.1249 9.27078 33.7954 9.92978 34.2704C10.5888 34.7454 11.3807 35.0007 12.193 35C12.9704 34.9992 13.7157 34.69 14.2654 34.1404C14.815 33.5907 15.1242 32.8454 15.125 32.068C15.1236 30.552 14.7711 29.0569 14.095 27.7C13.691 26.8871 13.0677 26.2034 12.2954 25.7262C11.5231 25.2491 10.6328 24.9975 9.725 25H6.425C5.01935 25 3.67128 25.5584 2.67733 26.5523C1.68339 27.5463 1.125 28.8944 1.125 30.3V32.254C1.125 32.9819 1.41404 33.6801 1.92858 34.195C2.44312 34.7099 3.14106 34.9995 3.869 35ZM3.125 30.3C3.125 29.4248 3.47268 28.5854 4.09155 27.9665C4.71042 27.3477 5.54979 27 6.425 27H9.725C10.2624 26.9984 10.7894 27.1474 11.2464 27.4302C11.7033 27.713 12.0718 28.1183 12.31 28.6C12.8456 29.6777 13.1245 30.8646 13.125 32.068C13.1247 32.3151 13.0265 32.552 12.8517 32.7267C12.677 32.9015 12.4401 32.9997 12.193 33C11.8015 32.9992 11.4202 32.8754 11.1029 32.6461C10.7857 32.4168 10.5485 32.0935 10.425 31.722C10.258 31.2195 9.93674 30.7825 9.50687 30.4733C9.07701 30.1641 8.56052 29.9985 8.031 30C7.26609 29.9992 6.52037 30.2394 5.89979 30.6866C5.2792 31.1338 4.81531 31.7652 4.574 32.491C4.51886 32.6591 4.40552 32.8021 4.25438 32.8941C4.10325 32.9861 3.92423 33.0212 3.74954 32.993C3.57486 32.9648 3.41598 32.8751 3.30149 32.7402C3.18699 32.6053 3.12441 32.4339 3.125 32.257V30.3ZM4.095 14H4.155C4.94254 13.9989 5.69751 13.6856 6.25429 13.1286C6.81107 12.5716 7.12421 11.8165 7.125 11.029C7.12285 10.1994 7.28525 9.37763 7.60281 8.61121C7.92036 7.8448 8.38675 7.14897 8.975 6.564L9.211 6.328C9.64753 5.89152 9.94481 5.33539 10.0653 4.72994C10.1857 4.1245 10.1239 3.49693 9.88765 2.92661C9.65141 2.35629 9.25135 1.86884 8.73806 1.52591C8.22477 1.18297 7.62131 0.999953 7.004 1C6.26587 1.00154 5.5381 1.17386 4.87765 1.50348C4.2172 1.8331 3.64198 2.31107 3.197 2.9C1.85584 4.69717 1.12929 6.87857 1.125 9.121V11.029C1.12579 11.8165 1.43893 12.5716 1.99571 13.1286C2.55249 13.6856 3.30746 13.9989 4.095 14ZM3.125 9.121C3.12801 7.3111 3.71433 5.55037 4.797 4.1C5.05494 3.75866 5.38843 3.48171 5.77134 3.29086C6.15425 3.10002 6.57617 3.00046 7.004 3C7.22581 2.99987 7.44267 3.06554 7.62714 3.18871C7.81161 3.31188 7.9554 3.487 8.0403 3.69192C8.1252 3.89684 8.1474 4.12234 8.10409 4.33988C8.06078 4.55742 7.95391 4.75722 7.797 4.914L7.561 5.15C6.7864 5.92018 6.17225 6.83636 5.75411 7.84549C5.33597 8.85462 5.12214 9.93667 5.125 11.029C5.12474 11.2863 5.02249 11.5329 4.84066 11.715C4.65884 11.897 4.41227 11.9995 4.155 12H4.095C3.83773 11.9995 3.59116 11.897 3.40934 11.715C3.22751 11.5329 3.12526 11.2863 3.125 11.029V9.121Z" fill="#1B1717"/>
<path d="M45.125 27C42.6779 26.9989 40.2566 27.4999 38.011 28.472L35.471 25.932C34.2275 24.6814 32.7483 23.6899 31.119 23.0149C29.4896 22.34 27.7426 21.995 25.979 22C25.7865 22.0001 25.5997 21.9352 25.4488 21.8158C25.2978 21.6964 25.1916 21.5295 25.1474 21.3422C25.1032 21.1549 25.1235 20.9582 25.2051 20.7839C25.2867 20.6096 25.4248 20.468 25.597 20.382L30.525 17.919C31.3189 17.5194 31.9841 16.9039 32.444 16.1433C32.9039 15.3827 33.1399 14.5077 33.125 13.619C33.1226 12.394 32.6346 11.2199 31.7681 10.3541C30.9015 9.48826 29.727 9.00132 28.502 9H23.979C23.7865 9.00009 23.5997 8.93518 23.4488 8.81579C23.2978 8.6964 23.1916 8.52953 23.1474 8.34223C23.1032 8.15493 23.1235 7.95819 23.2051 7.7839C23.2867 7.60961 23.4248 7.46799 23.597 7.382L25.548 6.407C26.1232 6.11954 26.5846 5.64622 26.8571 5.06377C27.1297 4.48132 27.1976 3.82387 27.0498 3.198C26.902 2.57213 26.5472 2.01453 26.0428 1.61558C25.5384 1.21663 24.9141 0.999716 24.271 1H17.51C16.6125 1.00106 15.7522 1.35803 15.1176 1.99261C14.483 2.62719 14.126 3.48757 14.125 4.385C14.1258 4.66204 14.0431 4.93291 13.8877 5.16229C13.7324 5.39167 13.5115 5.56894 13.254 5.671C12.0326 6.15507 10.9855 6.99586 10.2489 8.08377C9.51243 9.17167 9.12076 10.4562 9.12497 11.77V14.882C9.12292 15.4049 9.2673 15.9178 9.54177 16.3628C9.81624 16.8079 10.2098 17.1671 10.678 17.4C10.8129 17.4663 10.9264 17.5693 11.0054 17.6972C11.0845 17.8251 11.1259 17.9727 11.125 18.123V20C11.125 20.7956 11.441 21.5587 12.0037 22.1213C12.5663 22.6839 13.3293 23 14.125 23C14.3902 23 14.6445 23.1054 14.8321 23.2929C15.0196 23.4804 15.125 23.7348 15.125 24V26.5C15.125 27.4283 15.4937 28.3185 16.1501 28.9749C16.8065 29.6313 17.6967 30 18.625 30C19.0228 30 19.4043 30.158 19.6856 30.4393C19.9669 30.7206 20.125 31.1022 20.125 31.5C20.1268 32.1491 20.3391 32.7801 20.73 33.2983C21.1209 33.8165 21.6693 34.194 22.293 34.374L25.548 35.304C26.0025 35.4352 26.4021 35.7105 26.6866 36.0886C26.971 36.4666 27.1249 36.9269 27.125 37.4C27.1252 37.7448 27.0144 38.0805 26.8089 38.3574C26.6035 38.6343 26.3143 38.8377 25.9842 38.9374C25.6542 39.0372 25.3008 39.028 24.9763 38.9112C24.6519 38.7944 24.3737 38.5762 24.183 38.289L23.999 38.014C23.5884 37.3945 23.0307 36.8863 22.3758 36.5349C21.7209 36.1834 20.9892 35.9997 20.246 36C19.6287 36 19.0252 36.183 18.5119 36.5259C17.9986 36.8688 17.5986 37.3563 17.3623 37.9266C17.1261 38.4969 17.0643 39.1245 17.1847 39.7299C17.3052 40.3354 17.6024 40.8915 18.039 41.328C18.3843 41.6716 18.6581 42.0802 18.8445 42.5303C19.0309 42.9803 19.1262 43.4629 19.125 43.95C19.1254 44.3127 19.0043 44.6651 18.7809 44.951C18.5576 45.2368 18.245 45.4396 17.893 45.527C17.102 45.7243 16.3998 46.1806 15.8982 46.8232C15.3966 47.4658 15.1244 48.2578 15.125 49.073C15.1258 49.849 15.4344 50.5931 15.9831 51.1418C16.5319 51.6906 17.2759 51.9992 18.052 52H19.236C19.4328 52.0002 19.624 52.0658 19.7796 52.1863C19.9352 52.3069 20.0464 52.4758 20.0957 52.6663C20.145 52.8569 20.1296 53.0585 20.052 53.2394C19.9745 53.4203 19.839 53.5704 19.667 53.666L12.611 57.586C12.0517 57.8969 11.6115 58.3848 11.3594 58.9729C11.1073 59.5611 11.0576 60.2163 11.2182 60.8357C11.3787 61.4552 11.7403 62.0038 12.2463 62.3955C12.7523 62.7872 13.3741 62.9998 14.014 63H20.425C21.6715 63 22.867 62.5048 23.7484 61.6234C24.6298 60.742 25.125 59.5465 25.125 58.3C25.1316 58.2385 25.1562 58.1804 25.1957 58.1328C25.2351 58.0852 25.2877 58.0503 25.3469 58.0324C25.4061 58.0145 25.4692 58.0144 25.5284 58.0321C25.5877 58.0498 25.6404 58.0845 25.68 58.132L26.738 59.72C27 60.1129 27.3549 60.4351 27.7713 60.6579C28.1877 60.8807 28.6527 60.9973 29.125 60.9973C29.5972 60.9973 30.0622 60.8807 30.4786 60.6579C30.895 60.4351 31.25 60.1129 31.512 59.72C31.9101 59.1289 32.4638 58.6593 33.112 58.363C35.282 60.3145 37.8943 61.7087 40.7235 62.4253C43.5526 63.1419 46.5136 63.1594 49.351 62.4762C52.1884 61.793 54.817 60.4296 57.0099 58.5038C59.2028 56.578 60.8942 54.1475 61.9381 51.4221C62.982 48.6967 63.3471 45.7582 63.0019 42.8602C62.6567 39.9622 61.6115 37.1917 59.9565 34.7878C58.3016 32.3839 56.0866 30.4188 53.5027 29.062C50.9187 27.7052 48.0435 26.9975 45.125 27ZM57.188 34.522L50.711 41H49.125V39.414L55.603 32.937C56.1677 33.4277 56.6973 33.9573 57.188 34.522ZM58.425 36.116C59.4195 37.6098 60.1542 39.2611 60.598 41H53.539L58.425 36.116ZM49.125 29.527C50.8639 29.9707 52.5152 30.7054 54.009 31.7L49.125 36.586V29.527ZM29.652 49H36.711L31.825 53.883C30.8302 52.3897 30.0955 50.7387 29.652 49ZM31.825 36.116L36.711 41H29.652C30.0957 39.2611 30.8304 37.6098 31.825 36.116ZM39.539 41L33.062 34.522C33.5533 33.9572 34.0832 33.4273 34.648 32.936L41.125 39.414V41H39.539ZM41.125 36.586L36.242 31.7C37.7353 30.7052 39.3863 29.9705 41.125 29.527V36.586ZM26.097 33.38L22.842 32.45C22.6358 32.3905 22.4544 32.2658 22.3252 32.0945C22.1959 31.9232 22.1256 31.7146 22.125 31.5C22.125 30.5717 21.7562 29.6815 21.0998 29.0251C20.4435 28.3687 19.5532 28 18.625 28C18.2271 28 17.8456 27.842 17.5643 27.5607C17.283 27.2794 17.125 26.8978 17.125 26.5V24C17.125 23.2044 16.8089 22.4413 16.2463 21.8787C15.6837 21.3161 14.9206 21 14.125 21C13.8598 21 13.6054 20.8946 13.4179 20.7071C13.2303 20.5196 13.125 20.2652 13.125 20V18.118C13.1261 17.596 12.9813 17.0841 12.7069 16.64C12.4324 16.196 12.0393 15.8375 11.572 15.605C11.4371 15.5387 11.3236 15.4357 11.2445 15.3078C11.1654 15.1799 11.124 15.0323 11.125 14.882V11.77C11.122 10.8562 11.3944 9.96274 11.9067 9.20606C12.419 8.44938 13.1474 7.86461 13.997 7.528C14.6264 7.2786 15.1661 6.84534 15.5457 6.2847C15.9253 5.72406 16.1272 5.06205 16.125 4.385C16.1255 4.01784 16.2716 3.66586 16.5312 3.40624C16.7908 3.14662 17.1428 3.00053 17.51 3H24.271C24.4634 2.99991 24.6503 3.06482 24.8012 3.18421C24.9521 3.30361 25.0583 3.47047 25.1025 3.65777C25.1467 3.84507 25.1264 4.04181 25.0448 4.2161C24.9632 4.39039 24.8251 4.53201 24.653 4.618L22.702 5.593C22.1267 5.88046 21.6654 6.35378 21.3928 6.93623C21.1202 7.51868 21.0523 8.17613 21.2001 8.802C21.3479 9.42787 21.7028 9.98547 22.2072 10.3844C22.7116 10.7834 23.3359 11.0003 23.979 11H28.502C28.8517 11.0024 29.1975 11.0743 29.5193 11.2115C29.8411 11.3486 30.1324 11.5483 30.3764 11.7989C30.6204 12.0495 30.8123 12.346 30.9408 12.6714C31.0692 12.9967 31.1319 13.3443 31.125 13.694C31.1276 14.1997 30.9885 14.6959 30.7234 15.1265C30.4582 15.5571 30.0777 15.9047 29.625 16.13L24.697 18.593C24.1213 18.8806 23.6598 19.3544 23.3873 19.9374C23.1147 20.5203 23.0472 21.1783 23.1957 21.8044C23.3441 22.4306 23.6999 22.9882 24.2051 23.3868C24.7103 23.7853 25.3355 24.0014 25.979 24C27.4798 23.9958 28.9666 24.2894 30.3532 24.8638C31.7398 25.4381 32.9987 26.2818 34.057 27.346L36.138 29.428C33.1165 31.1795 30.666 33.7674 29.082 36.88C28.9801 36.069 28.6433 35.3055 28.1129 34.6836C27.5825 34.0617 26.8817 33.6086 26.097 33.38ZM29.848 58.613C29.7643 58.7259 29.6553 58.8177 29.5297 58.8809C29.4042 58.9441 29.2655 58.977 29.125 58.977C28.9844 58.977 28.8458 58.9441 28.7202 58.8809C28.5947 58.8177 28.4857 58.7259 28.402 58.613L27.344 57.025C27.0711 56.6119 26.6722 56.298 26.2066 56.1297C25.741 55.9615 25.2335 55.948 24.7596 56.0912C24.2857 56.2344 23.8707 56.5267 23.5762 56.9246C23.2817 57.3226 23.1234 57.8049 23.125 58.3C23.125 59.0161 22.8405 59.7028 22.3342 60.2092C21.8278 60.7155 21.1411 61 20.425 61H14.014C13.8171 60.9998 13.6259 60.9342 13.4703 60.8137C13.3147 60.6931 13.2036 60.5242 13.1543 60.3337C13.105 60.1431 13.1203 59.9415 13.1979 59.7606C13.2755 59.5797 13.4109 59.4296 13.583 59.334L20.639 55.414C21.1982 55.1031 21.6385 54.6152 21.8905 54.0271C22.1426 53.4389 22.1923 52.7837 22.0318 52.1643C21.8713 51.5448 21.5096 50.9962 21.0036 50.6045C20.4976 50.2128 19.8759 50.0002 19.236 50H18.052C17.8062 49.9997 17.5706 49.902 17.3968 49.7282C17.223 49.5544 17.1252 49.3188 17.125 49.073C17.1247 48.7039 17.2479 48.3453 17.4749 48.0542C17.702 47.7632 18.0199 47.5565 18.378 47.467C19.163 47.2721 19.8602 46.8198 20.3581 46.1823C20.856 45.5448 21.126 44.7589 21.125 43.95C21.1269 43.2001 20.9801 42.4573 20.6931 41.7646C20.4061 41.0718 19.9846 40.4428 19.453 39.914C19.2961 39.7572 19.1892 39.5574 19.1459 39.3399C19.1026 39.1223 19.1248 38.8968 19.2097 38.6919C19.2946 38.487 19.4384 38.3119 19.6228 38.1887C19.8073 38.0655 20.0242 37.9999 20.246 38C20.6595 37.9996 21.0667 38.1016 21.4312 38.2968C21.7957 38.4921 22.1062 38.7746 22.335 39.119L22.52 39.395C22.7978 39.816 23.1616 40.1734 23.5875 40.4437C24.0134 40.714 24.4916 40.8911 24.9908 40.9634C25.49 41.0356 25.9989 41.0014 26.4839 40.8629C26.9689 40.7245 27.4192 40.4849 27.805 40.16C26.9822 43.0484 26.9037 46.0981 27.5767 49.025C28.2496 51.9519 29.6523 54.661 31.654 56.9C30.9362 57.335 30.3203 57.9192 29.848 58.613ZM33.061 55.477L39.539 49H41.125V50.586L34.648 57.064C34.0826 56.5726 33.5523 56.0424 33.061 55.477ZM41.125 60.477C39.3861 60.0323 37.735 59.2962 36.242 58.3L41.125 53.414V60.477ZM43.125 60.865V48C43.125 47.7348 43.0196 47.4804 42.8321 47.2929C42.6445 47.1054 42.3902 47 42.125 47H29.264C29.0786 45.6731 29.0786 44.3269 29.264 43H42.125C42.3902 43 42.6445 42.8946 42.8321 42.7071C43.0196 42.5196 43.125 42.2652 43.125 42V29.139C44.4519 28.9537 45.7981 28.9537 47.125 29.139V42C47.125 42.2652 47.2303 42.5196 47.4179 42.7071C47.6054 42.8946 47.8598 43 48.125 43H60.986C61.1713 44.3269 61.1713 45.6731 60.986 47H48.125C47.8598 47 47.6054 47.1054 47.4179 47.2929C47.2303 47.4804 47.125 47.7348 47.125 48V60.861C45.7981 61.0463 44.4519 61.0463 43.125 60.861V60.865ZM60.598 49C60.1545 50.7387 59.4198 52.3897 58.425 53.883L53.539 49H60.598ZM49.125 53.414L54.009 58.3C52.5152 59.2946 50.8639 60.0293 49.125 60.473V53.414ZM55.603 57.063L49.125 50.586V49H50.711L57.189 55.477C56.6977 56.0418 56.1678 56.5717 55.603 57.063Z" fill="#1B1717"/>
</svg>
