<svg width="63" height="62" viewBox="0 0 63 62" fill="none" xmlns="http://www.w3.org/2000/svg">
<path d="M40.375 40H42.375V42H40.375V40ZM36.375 40H38.375V42H36.375V40ZM32.375 40H34.375V42H32.375V40ZM38.375 37H40.375V39H38.375V37ZM34.375 37H36.375V39H34.375V37ZM30.375 37H32.375V39H30.375V37ZM40.375 34H42.375V36H40.375V34ZM36.375 34H38.375V36H36.375V34ZM32.375 34H34.375V36H32.375V34ZM38.375 31H40.375V33H38.375V31Z" fill="#1B1717"/>
<path d="M54.785 19L60.046 13.739C60.7861 13.0029 61.373 12.1274 61.7728 11.1631C62.1725 10.1988 62.3772 9.16486 62.375 8.121C62.375 7.50369 62.192 6.90023 61.8491 6.38694C61.5062 5.87365 61.0187 5.47358 60.4484 5.23734C59.8781 5.0011 59.2505 4.9393 58.6451 5.05974C58.0396 5.18018 57.4835 5.47747 57.047 5.914L56.087 6.874C55.7309 7.23211 55.3074 7.51603 54.8408 7.70931C54.3743 7.90259 53.874 8.00139 53.369 8C52.283 7.99626 51.2176 8.29689 50.2938 8.86779C49.3699 9.43869 48.6245 10.257 48.142 11.23L46.994 13.53C46.9082 13.7029 46.7664 13.8416 46.5917 13.9236C46.417 14.0055 46.2197 14.0259 46.0319 13.9814C45.8441 13.9368 45.677 13.83 45.5577 13.6783C45.4384 13.5266 45.374 13.339 45.375 13.146C45.3781 12.0167 45.1571 10.898 44.7249 9.85473C44.2927 8.81143 43.6578 7.86424 42.857 7.068L41.637 5.848C41.0524 5.26025 40.357 4.79428 39.5911 4.47707C38.8252 4.15986 38.004 3.99771 37.175 4C36.1974 3.99997 35.2418 3.71009 34.429 3.167C33.2617 2.39321 31.8894 1.98675 30.489 2C26.7923 1.9964 23.106 1.60966 19.489 0.845998L17.595 0.445998C14.8532 -0.130809 12.023 -0.146457 9.275 0.399998C6.76849 0.906829 4.51386 2.26357 2.89222 4.24088C1.27058 6.21818 0.381406 8.69477 0.375 11.252V21.52C0.376486 23.0604 0.744341 24.5783 1.44819 25.9484C2.15205 27.3186 3.17171 28.5017 4.423 29.4C6.78249 31.0967 9.61679 32.0065 12.523 32C14.2186 32.0007 15.8945 32.3637 17.4384 33.0648C18.9823 33.7658 20.3586 34.7888 21.475 36.065L23.648 38.548C24.046 39.0031 24.5365 39.368 25.0868 39.6184C25.637 39.8688 26.2344 39.9989 26.839 40C26.0755 43.3456 26.2845 46.8397 27.4415 50.0704C28.5984 53.3011 30.6551 56.1336 33.3689 58.2339C36.0827 60.3342 39.3405 61.6146 42.7581 61.9243C46.1758 62.234 49.6107 61.5599 52.6578 59.9816C55.7049 58.4034 58.2372 55.9867 59.956 53.0166C61.6749 50.0465 62.5085 46.6468 62.3588 43.2184C62.209 39.7901 61.0821 36.4761 59.1108 33.6671C57.1395 30.8582 54.4061 28.6716 51.233 27.365C51.9112 26.7301 52.4514 25.9623 52.82 25.1095C53.1885 24.2566 53.3774 23.337 53.375 22.408C53.3726 21.7749 53.496 21.1476 53.7381 20.5625C53.9801 19.9775 54.336 19.4464 54.785 19ZM34.375 31.53V33H36.375V31H35.083C35.5842 30.6367 36.1061 30.3028 36.646 30H38.375V29.178C39.0266 28.9172 39.6947 28.6997 40.375 28.527V30H42.375V28.139C42.705 28.097 43.039 28.072 43.375 28.051V31H42.375V33H43.375V37H42.375V39H43.375V43H28.426C28.447 42.664 28.472 42.33 28.514 42H30.375V40H28.902C29.7664 36.6609 31.686 33.6902 34.375 31.53ZM53.667 31H45.375V28.051C48.3615 28.2337 51.2358 29.2559 53.667 31ZM59.567 39H45.375V37H58.74C59.0599 37.6471 59.3352 38.3153 59.564 39H59.567ZM29.186 49H59.564C59.3352 49.6846 59.0599 50.3529 58.74 51H30.01C29.6901 50.3529 29.4148 49.6846 29.186 49ZM28.667 47C28.5444 46.3391 28.4639 45.6711 28.426 45H60.326C60.2881 45.6711 60.2076 46.3391 60.085 47H28.667ZM45.375 43V41H60.083C60.2056 41.6609 60.2861 42.3289 60.324 43H45.375ZM38.86 59C37.5171 58.5056 36.2467 57.8329 35.083 57H53.667C52.5033 57.8329 51.2329 58.5056 49.89 59H38.86ZM55.96 55H32.786C32.1902 54.3781 31.6455 53.7093 31.157 53H57.593C57.1045 53.7093 56.5598 54.3781 55.964 55H55.96ZM57.589 35H45.375V33H55.964C56.5598 33.6219 57.1045 34.2907 57.593 35H57.589ZM51.375 22.408C51.3765 23.264 51.148 24.1048 50.7133 24.8422C50.2786 25.5797 49.6537 26.1868 48.904 26.6C44.563 25.446 39.9467 25.9683 35.9733 28.063C32 30.1577 28.9606 33.6713 27.46 37.905C27.2623 37.9644 27.0574 37.9964 26.851 38C26.5301 38.0001 26.2129 37.9315 25.9208 37.7989C25.6286 37.6662 25.3682 37.4726 25.157 37.231L22.984 34.748C21.6791 33.2564 20.0703 32.061 18.2656 31.2421C16.4608 30.4232 14.5018 29.9997 12.52 30C10.0327 30.0047 7.60715 29.2255 5.588 27.773C4.59482 27.0603 3.78545 26.1216 3.22677 25.0343C2.66809 23.947 2.37613 22.7424 2.375 21.52V11.252C2.37952 9.15736 3.1073 7.12855 4.43528 5.50867C5.76325 3.88878 7.60992 2.77724 9.663 2.362C12.1439 1.86779 14.6992 1.88072 17.175 2.4L19.069 2.8C22.8522 3.59858 26.7084 4.00075 30.575 4C31.5529 3.99917 32.5089 4.28874 33.322 4.832C34.4627 5.59356 35.8035 6.00001 37.175 6C37.7413 5.99831 38.3022 6.10898 38.8254 6.32561C39.3486 6.54224 39.8237 6.86051 40.223 7.262L41.443 8.482C42.0575 9.09303 42.5446 9.81987 42.8762 10.6205C43.2079 11.421 43.3774 12.2794 43.375 13.146C43.3749 13.789 43.592 14.4132 43.991 14.9174C44.3901 15.4216 44.9477 15.7763 45.5735 15.924C46.1993 16.0716 46.8566 16.0037 47.439 15.7311C48.0213 15.4585 48.4946 14.9972 48.782 14.422L49.931 12.122C50.2485 11.4824 50.7389 10.9445 51.3466 10.5694C51.9543 10.1944 52.6549 9.9971 53.369 10C54.1368 10.0023 54.8974 9.85219 55.6067 9.55831C56.316 9.26443 56.9599 8.83264 57.501 8.288L58.461 7.328C58.6178 7.17109 58.8176 7.06422 59.0351 7.02091C59.2527 6.9776 59.4782 6.9998 59.6831 7.0847C59.888 7.1696 60.0631 7.31338 60.1863 7.49785C60.3095 7.68232 60.3751 7.89919 60.375 8.121C60.3771 8.9028 60.2241 9.67726 59.9249 10.3996C59.6257 11.1219 59.1863 11.7776 58.632 12.329L53.375 17.59C52.7393 18.2207 52.2352 18.9714 51.8919 19.7985C51.5486 20.6255 51.3729 21.5125 51.375 22.408Z" fill="#1B1717"/>
</svg>
