<svg width="40" height="24" viewBox="0 0 40 24" fill="none" xmlns="http://www.w3.org/2000/svg">
<mask id="path-1-inside-1_1_661" fill="white">
<path d="M0 0H40V24H0V0Z"/>
</mask>
<path d="M2 24V0H-2V24H2Z" fill="#070D23" mask="url(#path-1-inside-1_1_661)"/>
<g opacity="0.8">
<g clip-path="url(#clip0_1_661)">
<path d="M28 20C30.121 19.9976 32.1544 19.154 33.6542 17.6542C35.154 16.1544 35.9976 14.121 36 12V7.99999C36 5.87826 35.1571 3.84343 33.6569 2.34314C32.1566 0.842847 30.1217 -7.62939e-06 28 -7.62939e-06C25.8783 -7.62939e-06 23.8434 0.842847 22.3431 2.34314C20.8429 3.84343 20 5.87826 20 7.99999V12C20.0024 14.121 20.846 16.1544 22.3458 17.6542C23.8456 19.154 25.879 19.9976 28 20ZM28 1.99999C29.4166 2.00262 30.7866 2.50586 31.868 3.42079C32.9495 4.33572 33.6727 5.60345 33.91 6.99999H31C30.7348 6.99999 30.4804 7.10535 30.2929 7.29289C30.1054 7.48042 30 7.73478 30 7.99999C30 8.26521 30.1054 8.51956 30.2929 8.7071C30.4804 8.89464 30.7348 8.99999 31 8.99999H34V11H31C30.7348 11 30.4804 11.1053 30.2929 11.2929C30.1054 11.4804 30 11.7348 30 12C30 12.2652 30.1054 12.5196 30.2929 12.7071C30.4804 12.8946 30.7348 13 31 13H33.91C33.675 14.3975 32.9523 15.6665 31.8704 16.5817C30.7884 17.4969 29.4171 17.999 28 17.999C26.5829 17.999 25.2116 17.4969 24.1296 16.5817C23.0477 15.6665 22.325 14.3975 22.09 13H25C25.2652 13 25.5196 12.8946 25.7071 12.7071C25.8946 12.5196 26 12.2652 26 12C26 11.7348 25.8946 11.4804 25.7071 11.2929C25.5196 11.1053 25.2652 11 25 11H22V8.99999H25C25.2652 8.99999 25.5196 8.89464 25.7071 8.7071C25.8946 8.51956 26 8.26521 26 7.99999C26 7.73478 25.8946 7.48042 25.7071 7.29289C25.5196 7.10535 25.2652 6.99999 25 6.99999H22.09C22.3273 5.60345 23.0505 4.33572 24.132 3.42079C25.2134 2.50586 26.5834 2.00262 28 1.99999Z" fill="white"/>
<path d="M39 12C38.7348 12 38.4804 12.1054 38.2929 12.2929C38.1054 12.4804 38 12.7348 38 13C37.9974 15.3861 37.0483 17.6738 35.361 19.361C33.6738 21.0483 31.3861 21.9974 29 22H27C24.6139 21.9971 22.3265 21.0479 20.6393 19.3607C18.9521 17.6735 18.0029 15.3861 18 13C18 12.7348 17.8946 12.4804 17.7071 12.2929C17.5196 12.1054 17.2652 12 17 12C16.7348 12 16.4804 12.1054 16.2929 12.2929C16.1054 12.4804 16 12.7348 16 13C16.0034 15.9163 17.1635 18.7122 19.2256 20.7744C21.2878 22.8365 24.0837 23.9966 27 24H29C31.9163 23.9966 34.7122 22.8365 36.7744 20.7744C38.8365 18.7122 39.9966 15.9163 40 13C40 12.7348 39.8946 12.4804 39.7071 12.2929C39.5196 12.1054 39.2652 12 39 12Z" fill="white"/>
</g>
</g>
<defs>
<clipPath id="clip0_1_661">
<rect width="24" height="24" fill="white" transform="translate(16)"/>
</clipPath>
</defs>
</svg>
