<svg width="19" height="17" viewBox="0 0 19 17" fill="none" xmlns="http://www.w3.org/2000/svg">
<path d="M1.66662 9.5926L15 9.5926L10.6133 13.9793C10.4883 14.1032 10.3891 14.2507 10.3214 14.4132C10.2537 14.5756 10.2189 14.7499 10.2189 14.9259C10.2189 15.1019 10.2537 15.2762 10.3214 15.4387C10.3891 15.6012 10.4883 15.7486 10.6133 15.8726C10.8631 16.1209 11.201 16.2603 11.5533 16.2603C11.9055 16.2603 12.2435 16.1209 12.4933 15.8726L18.2133 10.1393C18.7141 9.64147 18.997 8.96537 19 8.25927C18.9935 7.5578 18.7108 6.88713 18.2133 6.3926L12.4933 0.659275C12.369 0.535834 12.2216 0.438086 12.0595 0.371615C11.8974 0.305144 11.7238 0.271249 11.5486 0.271868C11.3734 0.272487 11.2 0.307608 11.0384 0.375223C10.8768 0.442839 10.7301 0.541626 10.6066 0.665943C10.4832 0.790261 10.3854 0.937677 10.319 1.09977C10.2525 1.26186 10.2186 1.43546 10.2192 1.61066C10.2198 1.78585 10.255 1.9592 10.3226 2.12082C10.3902 2.28244 10.489 2.42916 10.6133 2.55261L15 6.92594L1.66662 6.92594C1.313 6.92594 0.973861 7.06641 0.723813 7.31646C0.473763 7.56651 0.333289 7.90564 0.333289 8.25927C0.333289 8.61289 0.473763 8.95203 0.723813 9.20207C0.97386 9.45212 1.313 9.5926 1.66662 9.5926Z" fill="white"/>
</svg>
