<svg width="19" height="17" viewBox="0 0 19 17" fill="none" xmlns="http://www.w3.org/2000/svg">
<path d="M17.3333 6.92589H3.99995L8.38662 2.53923C8.51159 2.41528 8.61078 2.26781 8.67848 2.10534C8.74617 1.94286 8.78102 1.76858 8.78102 1.59257C8.78102 1.41655 8.74617 1.24228 8.67848 1.0798C8.61078 0.91732 8.51159 0.769852 8.38662 0.645902C8.1368 0.397567 7.79887 0.258179 7.44662 0.258179C7.09437 0.258179 6.75644 0.397567 6.50662 0.645902L0.786621 6.37923C0.285837 6.87703 0.00293128 7.55312 -4.57764e-05 8.25923C0.00644301 8.9607 0.28908 9.63136 0.786621 10.1259L6.50662 15.8592C6.63094 15.9827 6.77835 16.0804 6.94045 16.1469C7.10254 16.2133 7.27614 16.2472 7.45133 16.2466C7.62653 16.246 7.79988 16.2109 7.9615 16.1433C8.12313 16.0757 8.26985 15.9769 8.39329 15.8525C8.51673 15.7282 8.61448 15.5808 8.68095 15.4187C8.74742 15.2566 8.78131 15.083 8.78069 14.9078C8.78008 14.7326 8.74496 14.5593 8.67734 14.3977C8.60972 14.236 8.51094 14.0893 8.38662 13.9659L3.99995 9.59256H17.3333C17.6869 9.59256 18.026 9.45208 18.2761 9.20203C18.5261 8.95199 18.6666 8.61285 18.6666 8.25923C18.6666 7.9056 18.5261 7.56647 18.2761 7.31642C18.026 7.06637 17.6869 6.92589 17.3333 6.92589Z" fill="white"/>
</svg>
