<svg width="41" height="41" viewBox="0 0 41 41" fill="none" xmlns="http://www.w3.org/2000/svg">
<rect x="0.75" y="0.013916" width="40" height="40" rx="6" fill="#FDDE67"/>
<g clip-path="url(#clip0_4438_89)">
<path d="M28.7847 14.0717C28.5738 13.8185 28.3097 13.6149 28.0112 13.4753C27.7126 13.3357 27.387 13.2635 27.0575 13.2639H14.9315L14.9 13.0007C14.8355 12.4535 14.5725 11.949 14.1609 11.5828C13.7492 11.2166 13.2175 11.0142 12.6665 11.0139H12.5C12.3011 11.0139 12.1103 11.0929 11.9697 11.2336C11.829 11.3742 11.75 11.565 11.75 11.7639C11.75 11.9628 11.829 12.1536 11.9697 12.2942C12.1103 12.4349 12.3011 12.5139 12.5 12.5139H12.6665C12.8502 12.5139 13.0275 12.5814 13.1648 12.7035C13.3021 12.8255 13.3898 12.9937 13.4112 13.1762L14.4433 21.9512C14.5504 22.8638 14.9889 23.7053 15.6754 24.3159C16.362 24.9266 17.2489 25.2639 18.1678 25.2639H26C26.1989 25.2639 26.3897 25.1849 26.5303 25.0442C26.671 24.9036 26.75 24.7128 26.75 24.5139C26.75 24.315 26.671 24.1242 26.5303 23.9836C26.3897 23.8429 26.1989 23.7639 26 23.7639H18.1678C17.7035 23.7626 17.2511 23.6178 16.8725 23.3492C16.4938 23.0807 16.2075 22.7016 16.0528 22.2639H24.9928C25.872 22.264 26.7233 21.9551 27.3979 21.3912C28.0725 20.8274 28.5275 20.0444 28.6835 19.1792L29.2723 15.9137C29.331 15.5897 29.3178 15.2567 29.2336 14.9384C29.1493 14.6201 28.9961 14.3242 28.7847 14.0717ZM27.8 15.6474L27.2105 18.9129C27.1168 19.4327 26.8434 19.9029 26.4379 20.2413C26.0324 20.5797 25.5209 20.7647 24.9928 20.7639H15.8142L15.1085 14.7639H27.0575C27.1677 14.7633 27.2766 14.7869 27.3767 14.8331C27.4767 14.8793 27.5653 14.947 27.6361 15.0314C27.707 15.1157 27.7585 15.2146 27.7868 15.3211C27.8151 15.4276 27.8196 15.539 27.8 15.6474Z" fill="#181818"/>
<path d="M17.0001 29.0144C17.8285 29.0144 18.5001 28.3428 18.5001 27.5144C18.5001 26.686 17.8285 26.0144 17.0001 26.0144C16.1717 26.0144 15.5001 26.686 15.5001 27.5144C15.5001 28.3428 16.1717 29.0144 17.0001 29.0144Z" fill="#181818"/>
<path d="M24.5 29.0144C25.3284 29.0144 26 28.3428 26 27.5144C26 26.686 25.3284 26.0144 24.5 26.0144C23.6716 26.0144 23 26.686 23 27.5144C23 28.3428 23.6716 29.0144 24.5 29.0144Z" fill="#181818"/>
</g>
<defs>
<clipPath id="clip0_4438_89">
<rect width="18" height="18" fill="white" transform="translate(11.75 11.0139)"/>
</clipPath>
</defs>
</svg>
