<svg width="24" height="25" viewBox="0 0 24 25" fill="none" xmlns="http://www.w3.org/2000/svg">
<g clip-path="url(#clip0_4438_126)">
<path d="M17.5 2.30933C16.3739 2.32684 15.2724 2.64118 14.3067 3.2206C13.341 3.80002 12.5453 4.624 12 5.60933C11.4546 4.624 10.6589 3.80002 9.6932 3.2206C8.7275 2.64118 7.62601 2.32684 6.49996 2.30933C4.7049 2.38732 3.01366 3.17258 1.79574 4.49356C0.577818 5.81454 -0.0677922 7.56385 -4.17093e-05 9.35933C-4.17093e-05 13.9063 4.78596 18.8723 8.79996 22.2393C9.69618 22.9925 10.8293 23.4054 12 23.4054C13.1706 23.4054 14.3037 22.9925 15.2 22.2393C19.214 18.8723 24 13.9063 24 9.35933C24.0677 7.56385 23.4221 5.81454 22.2042 4.49356C20.9863 3.17258 19.295 2.38732 17.5 2.30933ZM13.915 20.7093C13.3789 21.1607 12.7007 21.4082 12 21.4082C11.2992 21.4082 10.621 21.1607 10.085 20.7093C4.94696 16.3983 1.99996 12.2623 1.99996 9.35933C1.9316 8.09404 2.36632 6.85306 3.20932 5.90703C4.05232 4.961 5.23519 4.38668 6.49996 4.30933C7.76472 4.38668 8.9476 4.961 9.7906 5.90703C10.6336 6.85306 11.0683 8.09404 11 9.35933C11 9.62454 11.1053 9.8789 11.2929 10.0664C11.4804 10.254 11.7347 10.3593 12 10.3593C12.2652 10.3593 12.5195 10.254 12.7071 10.0664C12.8946 9.8789 13 9.62454 13 9.35933C12.9316 8.09404 13.3663 6.85306 14.2093 5.90703C15.0523 4.961 16.2352 4.38668 17.5 4.30933C18.7647 4.38668 19.9476 4.961 20.7906 5.90703C21.6336 6.85306 22.0683 8.09404 22 9.35933C22 12.2623 19.053 16.3983 13.915 20.7053V20.7093Z" fill="#181818"/>
</g>
<defs>
<clipPath id="clip0_4438_126">
<rect width="24" height="24" fill="white" transform="translate(0 0.392822)"/>
</clipPath>
</defs>
</svg>
