<svg width="14" height="16" viewBox="0 0 14 16" fill="none" xmlns="http://www.w3.org/2000/svg">
<path d="M6.88599 7.70728C7.94482 7.70728 8.86157 7.32751 9.61084 6.57825C10.3599 5.8291 10.7397 4.91248 10.7397 3.85352C10.7397 2.79492 10.36 1.87817 9.61072 1.12878C8.86145 0.379761 7.9447 0 6.88599 0C5.82703 0 4.9104 0.379761 4.16125 1.12891C3.41211 1.87805 3.03223 2.7948 3.03223 3.85352C3.03223 4.91248 3.41211 5.82922 4.16125 6.57837C4.91064 7.32739 5.82739 7.70728 6.88599 7.70728ZM4.82434 1.79187C5.39917 1.21704 6.07349 0.937622 6.88599 0.937622C7.69836 0.937622 8.3728 1.21704 8.94775 1.79187C9.52258 2.36682 9.80212 3.04126 9.80212 3.85352C9.80212 4.66602 9.52258 5.34033 8.94775 5.91528C8.3728 6.49023 7.69836 6.76965 6.88599 6.76965C6.07373 6.76965 5.39941 6.49011 4.82434 5.91528C4.24939 5.34045 3.96985 4.66602 3.96985 3.85352C3.96985 3.04126 4.24939 2.36682 4.82434 1.79187Z" fill="#B8B8B8"/>
<path d="M13.629 12.3032C13.6074 11.9914 13.5637 11.6514 13.4994 11.2922C13.4344 10.9304 13.3508 10.5884 13.2507 10.2757C13.1472 9.95262 13.0067 9.63353 12.8328 9.32774C12.6525 9.01036 12.4406 8.73399 12.2028 8.50658C11.9541 8.26866 11.6497 8.07738 11.2976 7.93785C10.9468 7.79906 10.558 7.72874 10.1421 7.72874C9.97876 7.72874 9.8208 7.79576 9.51575 7.99437C9.328 8.11681 9.1084 8.25841 8.86328 8.41502C8.65369 8.54857 8.36975 8.67369 8.01904 8.78697C7.67688 8.89769 7.32947 8.95384 6.98645 8.95384C6.64368 8.95384 6.29626 8.89769 5.95386 8.78697C5.60352 8.67381 5.31946 8.54869 5.11023 8.41515C4.86743 8.25999 4.64771 8.11839 4.45715 7.99425C4.15234 7.79564 3.99438 7.72862 3.83105 7.72862C3.41504 7.72862 3.02637 7.79906 2.67566 7.93797C2.32385 8.07726 2.01929 8.26854 1.77039 8.5067C1.53259 8.73424 1.32068 9.01048 1.1405 9.32774C0.966797 9.63353 0.826172 9.9525 0.722656 10.2759C0.622681 10.5885 0.539062 10.9304 0.474121 11.2922C0.409668 11.6509 0.366089 11.9911 0.344482 12.3036C0.323242 12.6091 0.3125 12.9271 0.3125 13.2484C0.3125 14.0836 0.578003 14.7598 1.10156 15.2584C1.61865 15.7505 2.30273 16 3.13489 16H10.839C11.6709 16 12.355 15.7505 12.8722 15.2584C13.3959 14.7601 13.6614 14.0837 13.6614 13.2483C13.6613 12.9259 13.6504 12.6079 13.629 12.3032ZM12.2257 14.5791C11.884 14.9043 11.4304 15.0624 10.8389 15.0624H3.13489C2.54321 15.0624 2.0896 14.9043 1.74805 14.5792C1.41296 14.2602 1.25012 13.8248 1.25012 13.2484C1.25012 12.9486 1.26001 12.6526 1.27979 12.3684C1.29907 12.0896 1.3385 11.7833 1.39697 11.4579C1.45471 11.1365 1.5282 10.8348 1.6156 10.5618C1.69946 10.2999 1.81384 10.0406 1.95569 9.79088C2.09106 9.55284 2.24683 9.34862 2.4187 9.18407C2.57947 9.03014 2.7821 8.90416 3.02087 8.80968C3.2417 8.72227 3.48987 8.67442 3.75928 8.66722C3.79211 8.68468 3.85059 8.718 3.94531 8.77977C4.13806 8.90538 4.36023 9.04869 4.60583 9.20555C4.88269 9.38206 5.23938 9.54149 5.66553 9.67906C6.1012 9.81993 6.54553 9.89146 6.98657 9.89146C7.42761 9.89146 7.87207 9.81993 8.3075 9.67918C8.73401 9.54137 9.09058 9.38206 9.3678 9.20531C9.61914 9.04466 9.83508 8.9055 10.0278 8.77977C10.1226 8.71812 10.181 8.68468 10.2139 8.66722C10.4834 8.67442 10.7316 8.72227 10.9525 8.80968C11.1912 8.90416 11.3938 9.03026 11.5546 9.18407C11.7264 9.3485 11.8822 9.55272 12.0176 9.791C12.1595 10.0406 12.274 10.3 12.3578 10.5616C12.4453 10.8351 12.5189 11.1366 12.5765 11.4577C12.6349 11.7838 12.6744 12.0902 12.6937 12.3685V12.3688C12.7136 12.6518 12.7236 12.9477 12.7238 13.2484C12.7236 13.8249 12.5608 14.2602 12.2257 14.5791Z" fill="#B8B8B8"/>
</svg>
