<svg width="48" height="48" viewBox="0 0 48 48" fill="none" xmlns="http://www.w3.org/2000/svg">
<g opacity="0.8">
<rect width="48" height="48" rx="24" fill="#F8F8F8"/>
<g clip-path="url(#clip0_56_758)">
<path d="M14.1098 36C13.5505 35.9994 13.0142 35.777 12.6187 35.3815C12.2232 34.9861 12.0007 34.4499 12 33.8906V21C12.0008 20.4957 12.182 20.0083 12.5108 19.6259C12.8396 19.2435 13.2944 18.9913 13.7929 18.915C14.0068 18.8907 14.2223 18.8828 14.4375 18.8914C14.4758 18.8913 14.5135 18.8826 14.5479 18.8657C14.5823 18.8489 14.6124 18.8244 14.6359 18.7942L19.7651 12.1984C19.8481 12.092 19.9694 12.0224 20.1032 12.0045C20.2369 11.9866 20.3723 12.0219 20.4803 12.1027L23.1307 14.0902C23.1707 14.1202 23.2187 14.1376 23.2686 14.1402C23.3185 14.1427 23.3681 14.1303 23.4109 14.1045L26.7979 12.075C26.9111 12.0068 27.0461 11.9847 27.1751 12.0133C27.3041 12.042 27.4172 12.1191 27.4909 12.2287L31.8975 18.8392C31.9335 18.8931 31.9888 18.9311 32.052 18.9454C32.5185 19.0515 32.9355 19.3122 33.2352 19.6852C33.5348 20.0582 33.6996 20.5215 33.7028 21V24C33.7028 24.0666 33.7292 24.1305 33.7763 24.1776C33.8235 24.2248 33.8874 24.2512 33.954 24.2512H35.4855C35.6219 24.2513 35.7527 24.3056 35.8492 24.402C35.9457 24.4985 35.9999 24.6293 36 24.7657V29.3599C35.9998 29.4962 35.9455 29.627 35.8491 29.7234C35.7526 29.8199 35.6219 29.8742 35.4855 29.8744H30.1256C29.3925 29.8554 28.6958 29.5509 28.184 29.0257C27.6722 28.5005 27.3857 27.7961 27.3857 27.0628C27.3857 26.3294 27.6722 25.6251 28.184 25.0999C28.6958 24.5747 29.3925 24.2702 30.1256 24.2512H32.4229C32.4895 24.2512 32.5534 24.2248 32.6005 24.1776C32.6477 24.1305 32.6741 24.0666 32.6741 24V21C32.6737 20.7134 32.5597 20.4387 32.357 20.2361C32.1543 20.0335 31.8796 19.9195 31.593 19.9192H14.1098C13.8232 19.9195 13.5485 20.0335 13.3459 20.2361C13.1433 20.4387 13.0293 20.7134 13.029 21V33.8906C13.0294 34.1771 13.1434 34.4517 13.346 34.6542C13.5486 34.8568 13.8233 34.9707 14.1098 34.971H31.593C31.8795 34.9708 32.1543 34.8569 32.357 34.6544C32.5597 34.4518 32.6737 34.1771 32.6741 33.8906V31.6571C32.6723 31.5884 32.6842 31.52 32.7092 31.456C32.7342 31.392 32.7718 31.3336 32.8198 31.2844C32.8677 31.2351 32.925 31.196 32.9883 31.1692C33.0517 31.1425 33.1197 31.1287 33.1884 31.1287C33.2572 31.1287 33.3252 31.1425 33.3885 31.1692C33.4519 31.196 33.5092 31.2351 33.5571 31.2844C33.6051 31.3336 33.6427 31.392 33.6677 31.456C33.6927 31.52 33.7046 31.5884 33.7028 31.6571V33.8906C33.7022 34.4499 33.4797 34.9862 33.0841 35.3816C32.6886 35.7771 32.1523 35.9995 31.593 36H14.1098ZM30.1256 25.2799C29.6528 25.2799 29.1994 25.4677 28.865 25.802C28.5307 26.1363 28.3429 26.5898 28.3429 27.0626C28.3429 27.5354 28.5307 27.9889 28.865 28.3232C29.1994 28.6575 29.6528 28.8454 30.1256 28.8454H34.7197C34.7864 28.8454 34.8503 28.8189 34.8974 28.7718C34.9445 28.7246 34.971 28.6607 34.971 28.5941V25.5315C34.9711 25.4985 34.9646 25.4657 34.952 25.4352C34.9394 25.4047 34.9209 25.3769 34.8975 25.3536C34.8742 25.3302 34.8465 25.3117 34.816 25.299C34.7855 25.2864 34.7528 25.2799 34.7197 25.2799H30.1256ZM26.7 13.3305L24.4751 14.6666C24.4398 14.6879 24.4103 14.7175 24.3892 14.7528C24.368 14.7881 24.3558 14.8281 24.3537 14.8692C24.3516 14.9104 24.3596 14.9514 24.377 14.9887C24.3945 15.026 24.4208 15.0585 24.4537 15.0832C29.7337 19.0207 29.4562 18.8914 29.6152 18.8914H30.225C30.2705 18.8913 30.3151 18.879 30.3541 18.8556C30.3931 18.8322 30.425 18.7987 30.4465 18.7586C30.4679 18.7184 30.4781 18.6733 30.4759 18.6278C30.4736 18.5824 30.4591 18.5384 30.4339 18.5006L27.0397 13.4066C27.0038 13.3526 26.9484 13.3146 26.8851 13.3004C26.8219 13.2863 26.7555 13.297 26.7 13.3305ZM21.2224 15.915C25.8907 19.0087 25.6189 18.8914 25.7633 18.8914H27.063C27.1157 18.8911 27.1669 18.8743 27.2095 18.8433C27.2521 18.8124 27.2839 18.7689 27.3005 18.7189C27.317 18.6689 27.3175 18.615 27.3018 18.5647C27.2861 18.5145 27.2551 18.4704 27.213 18.4387L20.463 13.3762C20.4103 13.3367 20.3442 13.3194 20.2789 13.3281C20.2136 13.3368 20.1544 13.3708 20.1139 13.4227L16.1764 18.4852C16.1476 18.5224 16.1298 18.5669 16.125 18.6137C16.1202 18.6604 16.1286 18.7076 16.1492 18.7499C16.1699 18.7921 16.2019 18.8277 16.2418 18.8527C16.2817 18.8776 16.3277 18.8909 16.3748 18.891H18.255C18.294 18.8909 18.3324 18.8818 18.3673 18.8643C18.4022 18.8469 18.4325 18.8216 18.456 18.7905L20.523 16.0342C20.6017 15.928 20.7184 15.8563 20.8487 15.8341C20.979 15.8119 21.1129 15.8408 21.2224 15.915ZM20.9141 17.2305L19.9703 18.4875C19.9423 18.5248 19.9253 18.5692 19.9211 18.6157C19.9169 18.6622 19.9258 18.7089 19.9466 18.7507C19.9675 18.7924 19.9995 18.8275 20.0392 18.8521C20.0789 18.8767 20.1246 18.8898 20.1713 18.8899H23.0025C23.0564 18.8897 23.1087 18.8722 23.1519 18.8401C23.1952 18.8079 23.2269 18.7627 23.2425 18.7112C23.2581 18.6596 23.2568 18.6044 23.2387 18.5537C23.2206 18.503 23.1867 18.4594 23.142 18.4294L21.2546 17.1709C21.201 17.1354 21.1358 17.1219 21.0725 17.1329C21.0092 17.144 20.9525 17.1789 20.9141 17.2305Z" fill="#333333"/>
<path d="M30.8913 27.69C31.2378 27.69 31.5187 27.4091 31.5187 27.0626C31.5187 26.7161 31.2378 26.4352 30.8913 26.4352C30.5448 26.4352 30.2639 26.7161 30.2639 27.0626C30.2639 27.4091 30.5448 27.69 30.8913 27.69Z" fill="#333333"/>
<path d="M21.7027 32.937C21.5662 32.9371 21.4353 32.883 21.3387 32.7866C21.242 32.6902 21.1877 32.5594 21.1875 32.4229V31.6571C21.1875 31.5905 21.161 31.5266 21.1139 31.4795C21.0668 31.4324 21.0028 31.4059 20.9362 31.4059H20.1716C20.1049 31.4059 20.041 31.4323 19.9938 31.4795C19.9466 31.5266 19.9201 31.5905 19.92 31.6571V32.4229C19.9163 32.5569 19.8606 32.6842 19.7645 32.7777C19.6685 32.8712 19.5397 32.9235 19.4056 32.9235C19.2716 32.9235 19.1428 32.8712 19.0468 32.7777C18.9507 32.6842 18.895 32.5569 18.8913 32.4229V31.6571C18.8913 31.5905 18.8649 31.5266 18.8177 31.4795C18.7706 31.4324 18.7067 31.4059 18.6401 31.4059H17.8743C17.7379 31.4059 17.607 31.3517 17.5105 31.2552C17.414 31.1587 17.3598 31.0278 17.3598 30.8914C17.3598 30.7549 17.414 30.6241 17.5105 30.5276C17.607 30.4311 17.7379 30.3769 17.8743 30.3769H18.6401C18.6731 30.3769 18.7058 30.3704 18.7362 30.3578C18.7667 30.3451 18.7944 30.3266 18.8177 30.3033C18.8411 30.28 18.8596 30.2523 18.8722 30.2218C18.8848 30.1913 18.8913 30.1586 18.8913 30.1256V25.5315C18.8914 25.4985 18.8849 25.4658 18.8723 25.4352C18.8597 25.4047 18.8412 25.377 18.8179 25.3536C18.7945 25.3302 18.7668 25.3117 18.7363 25.299C18.7058 25.2864 18.6731 25.2799 18.6401 25.2799H17.8743C17.8056 25.2817 17.7372 25.2698 17.6732 25.2448C17.6092 25.2198 17.5508 25.1822 17.5016 25.1343C17.4523 25.0863 17.4132 25.029 17.3865 24.9657C17.3597 24.9023 17.3459 24.8343 17.3459 24.7656C17.3459 24.6968 17.3597 24.6288 17.3865 24.5655C17.4132 24.5022 17.4523 24.4448 17.5016 24.3969C17.5508 24.3489 17.6092 24.3114 17.6732 24.2863C17.7372 24.2613 17.8056 24.2494 17.8743 24.2513H18.6401C18.7067 24.2513 18.7706 24.2248 18.8177 24.1777C18.8649 24.1306 18.8913 24.0666 18.8913 24V23.2343C18.8895 23.1656 18.9014 23.0972 18.9264 23.0331C18.9514 22.9691 18.989 22.9108 19.037 22.8615C19.0849 22.8123 19.1422 22.7731 19.2056 22.7464C19.2689 22.7196 19.3369 22.7059 19.4056 22.7059C19.4744 22.7059 19.5424 22.7196 19.6057 22.7464C19.6691 22.7731 19.7264 22.8123 19.7743 22.8615C19.8223 22.9108 19.8599 22.9691 19.8849 23.0331C19.9099 23.0972 19.9218 23.1656 19.92 23.2343V24C19.9201 24.0667 19.9466 24.1306 19.9938 24.1777C20.041 24.2248 20.1049 24.2513 20.1716 24.2513H20.9373C21.0038 24.251 21.0674 24.2244 21.1143 24.1773C21.1611 24.1302 21.1875 24.0665 21.1875 24V23.2343C21.1856 23.1656 21.1975 23.0972 21.2225 23.0331C21.2476 22.9691 21.2851 22.9108 21.3331 22.8615C21.381 22.8123 21.4384 22.7731 21.5017 22.7464C21.565 22.7196 21.633 22.7059 21.7018 22.7059C21.7705 22.7059 21.8385 22.7196 21.9019 22.7464C21.9652 22.7731 22.0225 22.8123 22.0705 22.8615C22.1184 22.9108 22.156 22.9691 22.181 23.0331C22.206 23.0972 22.2179 23.1656 22.2161 23.2343V24.141C22.2161 24.1928 22.2321 24.2434 22.262 24.2858C22.2919 24.3281 22.3341 24.3602 22.383 24.3776C22.6645 24.4753 22.921 24.6339 23.1342 24.842C23.3473 25.0502 23.512 25.3029 23.6163 25.582C23.7206 25.8611 23.762 26.1598 23.7375 26.4568C23.7131 26.7538 23.6235 27.0417 23.475 27.3C23.4427 27.3562 23.4335 27.4227 23.4491 27.4856C23.4648 27.5485 23.5041 27.6029 23.559 27.6375C23.9324 27.8744 24.219 28.226 24.3756 28.6396C24.5323 29.0532 24.5506 29.5064 24.4278 29.9312C24.305 30.3561 24.0477 30.7297 23.6945 30.9959C23.3414 31.2621 22.9115 31.4066 22.4692 31.4078C22.4026 31.4078 22.3387 31.4342 22.2916 31.4813C22.2444 31.5285 22.218 31.5924 22.218 31.659V32.4248C22.2173 32.5609 22.1627 32.6913 22.0661 32.7873C21.9695 32.8833 21.8389 32.9371 21.7027 32.937ZM20.1716 28.3429C20.1049 28.3429 20.041 28.3693 19.9938 28.4165C19.9466 28.4636 19.9201 28.5275 19.92 28.5941V30.1256C19.9201 30.1923 19.9466 30.2562 19.9938 30.3033C20.041 30.3504 20.1049 30.3769 20.1716 30.3769H22.4685C23.8147 30.3769 23.8132 28.3429 22.4685 28.3429H20.1716ZM20.1716 25.2799C20.1049 25.2799 20.0408 25.3064 19.9937 25.3536C19.9465 25.4008 19.92 25.4648 19.92 25.5315V27.0626C19.9201 27.1293 19.9466 27.1933 19.9938 27.2405C20.0409 27.2876 20.1049 27.3142 20.1716 27.3143H21.7027C23.049 27.3143 23.0475 25.2799 21.7027 25.2799H20.1716Z" fill="#333333"/>
</g>
</g>
<defs>
<clipPath id="clip0_56_758">
<rect width="24" height="24" fill="white" transform="translate(12 12)"/>
</clipPath>
</defs>
</svg>
