<svg width="48" height="48" viewBox="0 0 48 48" fill="none" xmlns="http://www.w3.org/2000/svg">
<g opacity="0.8">
<rect width="48" height="48" rx="24" fill="#F8F8F8"/>
<g clip-path="url(#clip0_56_774)">
<path d="M33.8905 21.8439C33.3683 21.8439 14.7058 21.8439 14.1094 21.8439C12.9463 21.8439 12 22.7901 12 23.9532C12 25.651 13.2097 27.0714 14.8125 27.3981V32.4844C14.8125 34.4229 16.3896 36 18.3281 36H29.6717C31.6102 36 33.1873 34.4229 33.1873 32.4844V27.398C34.7901 27.0714 35.9998 25.651 35.9998 23.9532C35.9998 22.7901 35.0536 21.8439 33.8905 21.8439ZM13.4062 23.9532C13.4062 23.5655 13.7217 23.2501 14.1094 23.2501H14.8125V25.9417C13.9941 25.6514 13.4062 24.8698 13.4062 23.9532ZM31.7811 32.4844C31.7811 33.6475 30.8348 34.5938 29.6717 34.5938H18.3281C17.165 34.5938 16.2187 33.6475 16.2187 32.4844V23.2501H31.7811V32.4844ZM33.1873 25.9416V23.2501H33.8905C34.2782 23.2501 34.5936 23.5655 34.5936 23.9532C34.5936 24.8698 34.0057 25.6514 33.1873 25.9416Z" fill="#333333"/>
<path d="M14.9233 20.0276C15.085 20.38 15.502 20.5357 15.8556 20.3736L31.1842 13.3424C31.5372 13.1805 31.692 12.7631 31.5301 12.4101C31.3682 12.0572 30.9508 11.9023 30.5979 12.0642L25.4939 14.4054L25.4875 14.3914C24.839 12.9828 23.1653 12.3642 21.7566 13.0128C20.3479 13.6613 19.7294 15.3349 20.3779 16.7436L20.3811 16.7506L15.2693 19.0954C14.9163 19.2573 14.7614 19.6747 14.9233 20.0276ZM21.6553 16.1556C21.3311 15.4512 21.6403 14.6144 22.3447 14.2901C23.049 13.9659 23.8858 14.2751 24.2101 14.9795L24.2157 14.9917L21.6593 16.1643L21.6553 16.1556Z" fill="#333333"/>
<path d="M31.4931 15.757C31.4931 15.3687 31.1783 15.0539 30.7899 15.0539C30.6584 15.0539 29.4846 15.0736 28.8012 15.757C28.1178 16.4404 28.0981 17.6142 28.0981 17.7458C28.0981 17.9909 28.0127 18.5344 27.8069 18.7401C27.6121 18.9349 27.0968 19.0291 26.8125 19.0314C26.4242 19.0314 26.1094 19.3462 26.1094 19.7345C26.1094 20.1228 26.4242 20.4376 26.8125 20.4376C26.9441 20.4376 28.1179 20.4179 28.8012 19.7345C29.4846 19.0511 29.5043 17.8774 29.5043 17.7485C29.5066 17.4615 29.6009 16.9461 29.7956 16.7514C29.9903 16.5567 30.5053 16.4625 30.7924 16.4601C31.1796 16.4588 31.4931 16.1445 31.4931 15.757Z" fill="#333333"/>
<path d="M31.0312 20.4376C31.1628 20.4376 32.3366 20.4179 33.0199 19.7345C33.7033 19.0511 33.723 17.8774 33.723 17.7485C33.7253 17.4615 33.8196 16.9461 34.0143 16.7514C34.209 16.5567 34.724 16.4625 35.0111 16.4601C35.3983 16.4588 35.7118 16.1445 35.7118 15.757C35.7118 15.3687 35.397 15.0539 35.0087 15.0539C34.8771 15.0539 33.7033 15.0736 33.02 15.757C32.3365 16.4404 32.3168 17.6142 32.3168 17.7458C32.3168 17.9909 32.2314 18.5344 32.0256 18.7401C31.8309 18.9349 31.3155 19.0291 31.0312 19.0314C30.6429 19.0314 30.3281 19.3462 30.3281 19.7345C30.3281 20.1228 30.6429 20.4376 31.0312 20.4376Z" fill="#333333"/>
</g>
</g>
<defs>
<clipPath id="clip0_56_774">
<rect width="24" height="24" fill="white" transform="translate(12 12)"/>
</clipPath>
</defs>
</svg>
