<svg width="60" height="79" viewBox="0 0 60 79" fill="none" xmlns="http://www.w3.org/2000/svg">
<g opacity="0.8">
<rect x="6" y="6" width="48" height="48" rx="24" fill="#F8F8F8"/>
<path d="M39.75 28.275C39.225 24.975 36.375 22.5 33.075 22.5H27C23.625 22.5 20.775 24.975 20.25 28.275C19.725 31.8 19.5 33.375 19.5 33.975C19.5 37.65 24.525 38.85 26.175 35.55L27.45 33H32.55L33.825 35.55C35.475 38.85 40.5 37.65 40.5 33.975C40.5 33.45 40.5 34.125 39.75 28.275ZM39 33.975C39 36.075 36.075 36.825 35.175 34.875L33.675 31.875C33.525 31.65 33.3 31.5 33 31.5H27C26.7 31.5 26.475 31.65 26.325 31.95L24.825 34.95C23.925 36.825 21 36.075 21 33.975L21.75 28.5C22.125 25.95 24.375 24 26.925 24H33C35.625 24 37.8 25.95 38.175 28.5C38.25 28.575 39.075 34.35 39 33.975Z" fill="#333333"/>
<path d="M28.5 27.75C28.5 28.2 28.2 28.5 27.75 28.5H27V29.25C27 29.7 26.7 30 26.25 30C25.8 30 25.5 29.7 25.5 29.25V28.5H24.75C24.3 28.5 24 28.2 24 27.75C24 27.3 24.3 27 24.75 27H25.5V26.25C25.5 25.8 25.8 25.5 26.25 25.5C26.7 25.5 27 25.8 27 26.25V27H27.75C28.2 27 28.5 27.3 28.5 27.75Z" fill="#333333"/>
<path d="M33 27.75C33 28.2 32.7 28.5 32.25 28.5C31.8 28.5 31.5 28.2 31.5 27.75C31.5 27.3 31.8 27 32.25 27C32.7 27 33 27.3 33 27.75Z" fill="#333333"/>
<path d="M34.5 29.25C34.5 29.7 34.2 30 33.75 30C33.3 30 33 29.7 33 29.25C33 28.8 33.3 28.5 33.75 28.5C34.2 28.5 34.5 28.8 34.5 29.25Z" fill="#333333"/>
<path d="M36 27.75C36 28.2 35.7 28.5 35.25 28.5C34.8 28.5 34.5 28.2 34.5 27.75C34.5 27.3 34.8 27 35.25 27C35.7 27 36 27.3 36 27.75Z" fill="#333333"/>
<path d="M33 26.25C33 25.8 33.3 25.5 33.75 25.5C34.2 25.5 34.5 25.8 34.5 26.25C34.5 26.7 34.2 27 33.75 27C33.3 27 33 26.7 33 26.25Z" fill="#333333"/>
</g>
<path d="M19.4819 65.814V68.1562C19.4028 68.2734 19.2769 68.4053 19.104 68.5518C18.9312 68.6953 18.6924 68.8213 18.3877 68.9297C18.0859 69.0352 17.6963 69.0879 17.2188 69.0879C16.8291 69.0879 16.4702 69.0205 16.1421 68.8857C15.8169 68.748 15.5342 68.5488 15.2939 68.2881C15.0566 68.0244 14.8721 67.7051 14.7402 67.3301C14.6113 66.9521 14.5469 66.5244 14.5469 66.0469V65.5503C14.5469 65.0728 14.6025 64.6465 14.7139 64.2715C14.8281 63.8965 14.9951 63.5786 15.2148 63.3179C15.4346 63.0542 15.7041 62.855 16.0234 62.7202C16.3428 62.5825 16.709 62.5137 17.1221 62.5137C17.6113 62.5137 18.02 62.5986 18.3481 62.7686C18.6792 62.9355 18.937 63.167 19.1216 63.4629C19.3091 63.7588 19.4292 64.0957 19.4819 64.4736H18.6338C18.5957 64.2422 18.5195 64.0312 18.4053 63.8408C18.2939 63.6504 18.1343 63.498 17.9263 63.3838C17.7183 63.2666 17.4502 63.208 17.1221 63.208C16.8262 63.208 16.5698 63.2622 16.353 63.3706C16.1362 63.479 15.9575 63.6343 15.8169 63.8364C15.6763 64.0386 15.5708 64.2832 15.5005 64.5703C15.4331 64.8574 15.3994 65.1812 15.3994 65.5415V66.0469C15.3994 66.416 15.4419 66.7456 15.5269 67.0356C15.6147 67.3257 15.7393 67.5732 15.9004 67.7783C16.0615 67.9805 16.2534 68.1343 16.4761 68.2397C16.7017 68.3452 16.9507 68.3979 17.2231 68.3979C17.5249 68.3979 17.7695 68.373 17.957 68.3232C18.1445 68.2705 18.291 68.209 18.3965 68.1387C18.502 68.0654 18.5825 67.9966 18.6382 67.9321V66.4995H17.1572V65.814H19.4819ZM25.2568 63.1685L23.1387 69H22.2729L24.7119 62.6016H25.27L25.2568 63.1685ZM27.0322 69L24.9097 63.1685L24.8965 62.6016H25.4546L27.9023 69H27.0322ZM26.9224 66.6313V67.3257H23.3276V66.6313H26.9224ZM31.0273 62.6016H31.8491L33.9453 67.8179L36.0371 62.6016H36.8633L34.2617 69H33.6201L31.0273 62.6016ZM30.7593 62.6016H31.4844L31.603 66.5039V69H30.7593V62.6016ZM36.4019 62.6016H37.127V69H36.2832V66.5039L36.4019 62.6016ZM44.6816 68.3101V69H41.2935V68.3101H44.6816ZM41.4648 62.6016V69H40.6167V62.6016H41.4648ZM44.2334 65.3525V66.0425H41.2935V65.3525H44.2334ZM44.6377 62.6016V63.2959H41.2935V62.6016H44.6377Z" fill="#B8B8B8"/>
</svg>
