<svg width="48" height="48" viewBox="0 0 48 48" fill="none" xmlns="http://www.w3.org/2000/svg">
<g opacity="0.8">
<rect width="48" height="48" rx="24" fill="#F8F8F8"/>
<g clip-path="url(#clip0_56_752)">
<path d="M36 24.6799C36 18.0631 30.6168 12.6799 24 12.6799C17.3832 12.6799 12 18.0631 12 24.6799C12 25.9324 12.1926 27.1657 12.5714 28.3473V30.8632C12.5714 32.0454 13.5476 33.0317 14.8333 33.2419V33.4788C14.8333 34.494 15.7688 35.32 16.9189 35.32C18.0688 35.32 19.0043 34.494 19.0043 33.4788V25.719C19.0043 24.7038 18.0688 23.8778 16.9189 23.8778C16.3815 23.8778 15.891 24.0582 15.5208 24.354C15.6927 19.8253 19.4299 16.1938 24 16.1938C28.5701 16.1938 32.3074 19.8254 32.4791 24.3542C32.1089 24.0584 31.6184 23.8778 31.081 23.8778C29.931 23.8778 28.9954 24.7038 28.9954 25.719V33.4788C28.9954 34.494 29.931 35.32 31.081 35.32C32.2309 35.32 33.1665 34.494 33.1665 33.4788V33.2419C34.4521 33.0316 35.4284 32.0454 35.4284 30.8632V28.348C35.8073 27.1661 36 25.9327 36 24.6799ZM13.6415 30.8633V28.3344C13.6415 27.731 14.1432 27.219 14.8333 27.0463V32.1515C14.1432 31.9789 13.6415 31.4667 13.6415 30.8633ZM15.9033 25.719C15.9033 25.301 16.3683 24.9479 16.9188 24.9479C17.4692 24.9479 17.9342 25.301 17.9342 25.719V33.4788C17.9342 33.8968 17.4692 34.2499 16.9188 34.2499C16.3683 34.2499 15.9033 33.8968 15.9033 33.4788V25.719ZM24 15.1237C18.7308 15.1237 14.4439 19.4106 14.4439 24.6799C14.4439 25.1284 14.4757 25.5767 14.5377 26.0188C14.0396 26.1513 13.6009 26.4032 13.2647 26.7361C13.1363 26.0617 13.0701 25.3743 13.0701 24.6799C13.0701 18.6531 17.9732 13.75 24 13.75C30.0268 13.75 34.9299 18.6531 34.9299 24.6799C34.9299 25.3743 34.8637 26.0617 34.7353 26.7362C34.3992 26.4033 33.9604 26.1513 33.4623 26.0188C33.5242 25.5764 33.5561 25.1281 33.5561 24.6798C33.5561 19.4106 29.2692 15.1237 24 15.1237ZM32.0965 33.4789C32.0965 33.8968 31.6315 34.25 31.0811 34.25C30.5306 34.25 30.0656 33.8968 30.0656 33.4789V25.719C30.0656 25.301 30.5306 24.9479 31.0811 24.9479C31.6315 24.9479 32.0965 25.301 32.0965 25.719V33.4789ZM34.3584 30.8633C34.3584 31.4667 33.8566 31.9789 33.1665 32.1516V27.0464C33.8566 27.219 34.3584 27.7311 34.3584 28.3345V30.8633Z" fill="#333333"/>
</g>
</g>
<defs>
<clipPath id="clip0_56_752">
<rect width="24" height="24" fill="white" transform="translate(12 12)"/>
</clipPath>
</defs>
</svg>
