<svg width="48" height="48" viewBox="0 0 48 48" fill="none" xmlns="http://www.w3.org/2000/svg">
<g opacity="0.8">
<rect width="48" height="48" rx="24" fill="#F8F8F8"/>
<path d="M24.75 19.7812C21.6484 19.7812 19.125 22.3046 19.125 25.4062C19.125 28.5079 21.6484 31.0312 24.75 31.0312C27.8516 31.0312 30.375 28.5079 30.375 25.4062C30.375 22.3046 27.8516 19.7812 24.75 19.7812ZM24.75 29.625C22.4238 29.625 20.5312 27.7325 20.5312 25.4062C20.5312 23.08 22.4238 21.1875 24.75 21.1875C27.0762 21.1875 28.9688 23.08 28.9688 25.4062C28.9688 27.7325 27.0762 29.625 24.75 29.625Z" fill="#333333"/>
<path d="M24.75 22.5938C23.1992 22.5938 21.9375 23.8554 21.9375 25.4062C21.9375 26.9571 23.1992 28.2188 24.75 28.2188C26.3008 28.2188 27.5625 26.9571 27.5625 25.4062C27.5625 23.8554 26.3008 22.5938 24.75 22.5938ZM24.75 26.8125C23.9746 26.8125 23.3438 26.1817 23.3438 25.4062C23.3438 24.6308 23.9746 24 24.75 24C25.5254 24 26.1562 24.6308 26.1562 25.4062C26.1562 26.1817 25.5254 26.8125 24.75 26.8125Z" fill="#333333"/>
<path d="M33.8906 16.9688H29.8076L28.924 14.6125C28.8211 14.338 28.5587 14.1562 28.2656 14.1562H21.2344C20.9413 14.1562 20.6789 14.338 20.576 14.6125L19.6924 16.9688H17.625V16.2656C17.625 15.1025 16.6787 14.1562 15.5156 14.1562C14.3525 14.1562 13.4062 15.1025 13.4062 16.2656V17.0897C12.5879 17.3799 12 18.1615 12 19.0781C12 19.5805 12 31.2869 12 31.7344C12 32.8975 12.9463 33.8438 14.1094 33.8438H33.8906C35.0537 33.8438 36 32.8975 36 31.7344V19.0781C36 17.915 35.0537 16.9688 33.8906 16.9688ZM21.7216 15.5625H27.7784L28.3057 16.9688H21.1943L21.7216 15.5625ZM14.8125 16.2656C14.8125 15.8779 15.1279 15.5625 15.5156 15.5625C15.9033 15.5625 16.2188 15.8779 16.2188 16.2656V16.9688H14.8125V16.2656ZM13.4062 21.1875H15.5156C15.9033 21.1875 16.2188 21.5029 16.2188 21.8906V28.9219C16.2188 29.3096 15.9033 29.625 15.5156 29.625H13.4062V21.1875ZM34.5938 31.7344C34.5938 32.1221 34.2783 32.4375 33.8906 32.4375H14.1094C13.7217 32.4375 13.4062 32.1221 13.4062 31.7344V31.0312H15.5156C16.6787 31.0312 17.625 30.085 17.625 28.9219V21.8906C17.625 20.7275 16.6787 19.7812 15.5156 19.7812H13.4062V19.0781C13.4062 18.6904 13.7217 18.375 14.1094 18.375C16.3368 18.375 31.781 18.375 33.8906 18.375C34.2783 18.375 34.5938 18.6904 34.5938 19.0781V31.7344Z" fill="#333333"/>
<path d="M32.4844 19.7812H31.0781C30.6898 19.7812 30.375 20.0961 30.375 20.4844C30.375 20.8727 30.6898 21.1875 31.0781 21.1875H32.4844C32.8727 21.1875 33.1875 20.8727 33.1875 20.4844C33.1875 20.0961 32.8727 19.7812 32.4844 19.7812Z" fill="#333333"/>
</g>
</svg>
