<svg width="48" height="48" viewBox="0 0 48 48" fill="none" xmlns="http://www.w3.org/2000/svg">
<g opacity="0.8">
<rect width="48" height="48" rx="24" fill="#F8F8F8"/>
<g clip-path="url(#clip0_56_767)">
<path d="M35.8789 19.9768C35.6958 19.4736 35.3276 19.0718 34.8423 18.8455C33.0854 18.0262 31.1147 17.9403 29.2931 18.6032L27.3898 19.2959L21.9578 16.6075C21.7856 16.5223 21.5859 16.5112 21.4054 16.5769L18.1622 17.7574C17.9172 17.8465 17.7417 18.0638 17.7061 18.322C17.6705 18.5802 17.7806 18.8369 17.9922 18.989L21.4343 21.4636L16.6507 23.2047L14.8757 21.7654C14.6838 21.6099 14.4244 21.5664 14.1923 21.6509L12.4626 22.2805C12.2874 22.3442 12.1447 22.475 12.0659 22.6441C11.9871 22.8131 11.9786 23.0064 12.0424 23.1817L13.1442 26.2087C13.5027 27.1937 14.2233 27.9802 15.1734 28.4232C16.1235 28.8663 17.1892 28.9128 18.1742 28.5543L22.3884 27.0204L21.4797 30.5888C21.4154 30.8414 21.496 31.1088 21.6893 31.2837C21.8207 31.4026 21.9895 31.4655 22.1611 31.4655C22.2418 31.4655 22.3232 31.4516 22.4015 31.4231L25.6448 30.2426C25.8254 30.1769 25.9711 30.0402 26.0483 29.8642L28.2259 24.8957L34.6808 22.5463C35.7195 22.1682 36.257 21.0155 35.8789 19.9768ZM19.8933 18.6238L21.6036 18.0013L25.5629 19.9609L23.0336 20.8815L19.8933 18.6238ZM34.1998 21.2248L27.4622 23.6771C27.2816 23.7428 27.1359 23.8795 27.0587 24.0555L24.881 29.024L23.1707 29.6465L24.0794 26.0781C24.1437 25.8255 24.0631 25.5581 23.8699 25.3832C23.7384 25.2643 23.5696 25.2014 23.398 25.2014C23.3172 25.2014 23.2359 25.2154 23.1576 25.2438L17.6932 27.2327C17.0611 27.4628 16.3773 27.4329 15.7677 27.1487C15.1581 26.8644 14.6957 26.3597 14.4656 25.7277L13.6044 23.3614L14.2992 23.1085L16.0743 24.5477C16.2661 24.7032 16.5255 24.7467 16.7576 24.6623L29.7741 19.9247C31.2428 19.3901 32.8316 19.4595 34.2481 20.12C34.3929 20.1876 34.5028 20.3075 34.5575 20.4577C34.6703 20.7679 34.5099 21.112 34.1998 21.2248Z" fill="#333333"/>
</g>
</g>
<defs>
<clipPath id="clip0_56_767">
<rect width="24" height="24" fill="white" transform="translate(12 12)"/>
</clipPath>
</defs>
</svg>
